<svg xmlns="http://www.w3.org/2000/svg" viewBox="0 0 1600 180" preserveAspectRatio="xMidYMid slice"><defs><linearGradient id="sky" x2="0" y2="1"><stop stop-color="#222a1d"/><stop offset=".58" stop-color="#101710"/><stop offset="1" stop-color="#36452a"/></linearGradient><radialGradient id="glow"><stop stop-color="#b6ce73" stop-opacity=".8"/><stop offset=".28" stop-color="#b6ce73" stop-opacity=".24"/><stop offset="1" stop-color="#b6ce73" stop-opacity="0"/></radialGradient><linearGradient id="facet" x2=".8" y2="1"><stop stop-color="#eef2dc" stop-opacity=".7"/><stop offset="1" stop-color="#b6ce73" stop-opacity=".8"/></linearGradient><filter id="soft"><feGaussianBlur stdDeviation="12"/></filter><filter id="shine"><feGaussianBlur stdDeviation="2" result="b"/><feMerge><feMergeNode in="b"/><feMergeNode in="SourceGraphic"/></feMerge></filter></defs><path fill="url(#sky)" d="M0 0h1600v180H0z"/><ellipse cx="1200" cy="46" rx="480" ry="90" fill="url(#glow)" filter="url(#soft)"/><circle cx="958" cy="167" r="1" fill="#eef2dc" opacity="0.37"/><circle cx="703" cy="36" r="1.2" fill="#eef2dc" opacity="0.52"/><circle cx="1187" cy="55" r="0.8" fill="#b6ce73" opacity="0.34"/><circle cx="65" cy="132" r="0.8" fill="#b6ce73" opacity="0.74"/><circle cx="761" cy="30" r="1.6" fill="#b6ce73" opacity="0.67"/><circle cx="851" cy="145" r="1.2" fill="#b6ce73" opacity="0.37"/><circle cx="11" cy="126" r="1.2" fill="#b6ce73" opacity="0.39"/><circle cx="1549" cy="92" r="1.2" fill="#eef2dc" opacity="0.24"/><circle cx="299" cy="82" r="1" fill="#eef2dc" opacity="0.51"/><circle cx="523" cy="61" r="1" fill="#eef2dc" opacity="0.50"/><circle cx="350" cy="25" r="2" fill="#eef2dc" opacity="0.72"/><circle cx="1148" cy="129" r="2" fill="#b6ce73" opacity="0.58"/><circle cx="1051" cy="32" r="1" fill="#b6ce73" opacity="0.53"/><circle cx="1504" cy="65" r="1" fill="#eef2dc" opacity="0.52"/><circle cx="250" cy="101" r="1" fill="#b6ce73" opacity="0.55"/><circle cx="182" cy="104" r="0.8" fill="#eef2dc" opacity="0.70"/><circle cx="1002" cy="59" r="2" fill="#eef2dc" opacity="0.48"/><circle cx="633" cy="174" r="1.6" fill="#eef2dc" opacity="0.25"/><circle cx="1270" cy="13" r="1.6" fill="#eef2dc" opacity="0.61"/><circle cx="256" cy="157" r="1" fill="#eef2dc" opacity="0.42"/><circle cx="471" cy="155" r="1.6" fill="#eef2dc" opacity="0.28"/><circle cx="321" cy="18" r="0.8" fill="#eef2dc" opacity="0.48"/><circle cx="1458" cy="162" r="1.6" fill="#b6ce73" opacity="0.38"/><circle cx="1219" cy="122" r="1.6" fill="#eef2dc" opacity="0.39"/><circle cx="538" cy="138" r="0.8" fill="#eef2dc" opacity="0.32"/><circle cx="998" cy="164" r="1" fill="#eef2dc" opacity="0.22"/><circle cx="1527" cy="163" r="0.8" fill="#b6ce73" opacity="0.28"/><circle cx="279" cy="99" r="1.2" fill="#b6ce73" opacity="0.45"/><circle cx="279" cy="141" r="1.6" fill="#eef2dc" opacity="0.71"/><circle cx="902" cy="27" r="1" fill="#eef2dc" opacity="0.62"/><circle cx="1333" cy="61" r="1" fill="#b6ce73" opacity="0.57"/><circle cx="1165" cy="173" r="1.6" fill="#eef2dc" opacity="0.55"/><circle cx="1380" cy="59" r="1" fill="#eef2dc" opacity="0.74"/><circle cx="180" cy="143" r="1" fill="#b6ce73" opacity="0.46"/><circle cx="1079" cy="113" r="1" fill="#b6ce73" opacity="0.66"/><circle cx="823" cy="113" r="1.6" fill="#eef2dc" opacity="0.35"/><circle cx="549" cy="161" r="1.2" fill="#eef2dc" opacity="0.74"/><circle cx="90" cy="21" r="1.6" fill="#eef2dc" opacity="0.33"/><circle cx="1134" cy="73" r="2" fill="#eef2dc" opacity="0.67"/><circle cx="816" cy="91" r="0.8" fill="#b6ce73" opacity="0.70"/><circle cx="853" cy="30" r="1" fill="#eef2dc" opacity="0.45"/><circle cx="1513" cy="34" r="0.8" fill="#eef2dc" opacity="0.37"/><circle cx="155" cy="56" r="0.8" fill="#eef2dc" opacity="0.68"/><circle cx="989" cy="38" r="1" fill="#eef2dc" opacity="0.71"/><circle cx="922" cy="167" r="1.6" fill="#eef2dc" opacity="0.75"/><circle cx="801" cy="109" r="1.2" fill="#eef2dc" opacity="0.72"/><circle cx="1180" cy="31" r="1" fill="#eef2dc" opacity="0.23"/><circle cx="1561" cy="46" r="1" fill="#eef2dc" opacity="0.43"/><circle cx="410" cy="134" r="1.2" fill="#b6ce73" opacity="0.31"/><circle cx="609" cy="9" r="1" fill="#b6ce73" opacity="0.30"/><circle cx="1373" cy="156" r="1" fill="#b6ce73" opacity="0.32"/><circle cx="1581" cy="47" r="2" fill="#b6ce73" opacity="0.28"/><circle cx="455" cy="142" r="1.2" fill="#eef2dc" opacity="0.62"/><circle cx="477" cy="77" r="1.2" fill="#b6ce73" opacity="0.67"/><circle cx="1362" cy="93" r="2" fill="#b6ce73" opacity="0.47"/><circle cx="468" cy="70" r="0.8" fill="#b6ce73" opacity="0.30"/><circle cx="896" cy="78" r="0.8" fill="#b6ce73" opacity="0.27"/><circle cx="155" cy="143" r="2" fill="#b6ce73" opacity="0.35"/><circle cx="197" cy="54" r="2" fill="#b6ce73" opacity="0.61"/><circle cx="1100" cy="96" r="1.2" fill="#eef2dc" opacity="0.44"/><circle cx="154" cy="154" r="0.8" fill="#b6ce73" opacity="0.56"/><circle cx="1446" cy="138" r="1.6" fill="#eef2dc" opacity="0.35"/><circle cx="380" cy="139" r="0.8" fill="#eef2dc" opacity="0.37"/><circle cx="1085" cy="123" r="2" fill="#eef2dc" opacity="0.42"/><circle cx="750" cy="7" r="2" fill="#eef2dc" opacity="0.50"/><circle cx="1201" cy="19" r="2" fill="#eef2dc" opacity="0.53"/><circle cx="1145" cy="146" r="0.8" fill="#b6ce73" opacity="0.74"/><circle cx="1059" cy="102" r="1.2" fill="#eef2dc" opacity="0.66"/><circle cx="922" cy="25" r="0.8" fill="#eef2dc" opacity="0.40"/><circle cx="1543" cy="99" r="1" fill="#b6ce73" opacity="0.76"/><circle cx="1131" cy="166" r="2" fill="#b6ce73" opacity="0.51"/><circle cx="1067" cy="57" r="2" fill="#eef2dc" opacity="0.29"/><circle cx="373" cy="86" r="1.2" fill="#b6ce73" opacity="0.70"/><circle cx="1396" cy="112" r="2" fill="#b6ce73" opacity="0.23"/><circle cx="1456" cy="41" r="1.6" fill="#eef2dc" opacity="0.27"/><circle cx="77" cy="106" r="1.2" fill="#b6ce73" opacity="0.42"/><g filter="url(#shine)"><path d="M45 190Q47 166 75 0" fill="none" stroke="#36452a" stroke-width="3" opacity=".78"/><path d="M75.0 166Q131.0 125 118.0 142Q108.0 156 75.0 166" fill="#36452a" opacity=".72" stroke="#b6ce73" stroke-opacity=".65"/><path d="M75.0 166L118.0 142" stroke="#eef2dc" stroke-opacity=".45"/><path d="M82.4 129Q28.400000000000006 103 41.400000000000006 120Q51.400000000000006 134 82.4 129" fill="#222a1d" opacity=".72" stroke="#b6ce73" stroke-opacity=".65"/><path d="M82.4 129L41.400000000000006 120" stroke="#eef2dc" stroke-opacity=".45"/><path d="M89.8 92Q131.8 55 118.8 72Q108.8 86 89.8 92" fill="#b6ce73" opacity=".72" stroke="#b6ce73" stroke-opacity=".65"/><path d="M89.8 92L118.8 72" stroke="#eef2dc" stroke-opacity=".45"/><path d="M97.2 55Q36.2 17 49.2 34Q59.2 48 97.2 55" fill="#36452a" opacity=".72" stroke="#b6ce73" stroke-opacity=".65"/><path d="M97.2 55L49.2 34" stroke="#eef2dc" stroke-opacity=".45"/><path d="M206 190Q202 165 236 0" fill="none" stroke="#36452a" stroke-width="3" opacity=".78"/><path d="M236.0 165Q193.0 135 206.0 152Q216.0 166 236.0 165" fill="#222a1d" opacity=".72" stroke="#b6ce73" stroke-opacity=".65"/><path d="M236.0 165L206.0 152" stroke="#eef2dc" stroke-opacity=".45"/><path d="M243.4 128Q304.4 95 291.4 112Q281.4 126 243.4 128" fill="#222a1d" opacity=".72" stroke="#b6ce73" stroke-opacity=".65"/><path d="M243.4 128L291.4 112" stroke="#eef2dc" stroke-opacity=".45"/><path d="M250.8 91Q205.8 64 218.8 81Q228.8 95 250.8 91" fill="#36452a" opacity=".72" stroke="#b6ce73" stroke-opacity=".65"/><path d="M250.8 91L218.8 81" stroke="#eef2dc" stroke-opacity=".45"/><path d="M258.2 54Q315.2 22 302.2 39Q292.2 53 258.2 54" fill="#36452a" opacity=".72" stroke="#b6ce73" stroke-opacity=".65"/><path d="M258.2 54L302.2 39" stroke="#eef2dc" stroke-opacity=".45"/><path d="M411 190Q388 155 441 0" fill="none" stroke="#36452a" stroke-width="3" opacity=".78"/><path d="M441.0 155Q489.0 115 476.0 132Q466.0 146 441.0 155" fill="#b6ce73" opacity=".72" stroke="#b6ce73" stroke-opacity=".65"/><path d="M441.0 155L476.0 132" stroke="#eef2dc" stroke-opacity=".45"/><path d="M448.4 118Q408.4 89 421.4 106Q431.4 120 448.4 118" fill="#b6ce73" opacity=".72" stroke="#b6ce73" stroke-opacity=".65"/><path d="M448.4 118L421.4 106" stroke="#eef2dc" stroke-opacity=".45"/><path d="M455.8 81Q519.8 52 506.8 69Q496.8 83 455.8 81" fill="#36452a" opacity=".72" stroke="#b6ce73" stroke-opacity=".65"/><path d="M455.8 81L506.8 69" stroke="#eef2dc" stroke-opacity=".45"/><path d="M463.2 44Q408.2 6 421.2 23Q431.2 37 463.2 44" fill="#222a1d" opacity=".72" stroke="#b6ce73" stroke-opacity=".65"/><path d="M463.2 44L421.2 23" stroke="#eef2dc" stroke-opacity=".45"/><path d="M630 190Q629 127 660 0" fill="none" stroke="#36452a" stroke-width="3" opacity=".78"/><path d="M660.0 127Q622.0 102 635.0 119Q645.0 133 660.0 127" fill="#36452a" opacity=".72" stroke="#b6ce73" stroke-opacity=".65"/><path d="M660.0 127L635.0 119" stroke="#eef2dc" stroke-opacity=".45"/><path d="M667.4 90Q732.4 65 719.4 82Q709.4 96 667.4 90" fill="#b6ce73" opacity=".72" stroke="#b6ce73" stroke-opacity=".65"/><path d="M667.4 90L719.4 82" stroke="#eef2dc" stroke-opacity=".45"/><path d="M674.8 53Q623.8 27 636.8 44Q646.8 58 674.8 53" fill="#36452a" opacity=".72" stroke="#b6ce73" stroke-opacity=".65"/><path d="M674.8 53L636.8 44" stroke="#eef2dc" stroke-opacity=".45"/><path d="M682.2 16Q738.2 -18 725.2 -1Q715.2 13 682.2 16" fill="#222a1d" opacity=".72" stroke="#b6ce73" stroke-opacity=".65"/><path d="M682.2 16L725.2 -1" stroke="#eef2dc" stroke-opacity=".45"/><path d="M805 190Q793 132 835 0" fill="none" stroke="#36452a" stroke-width="3" opacity=".78"/><path d="M835.0 132Q879.0 96 866.0 113Q856.0 127 835.0 132" fill="#222a1d" opacity=".72" stroke="#b6ce73" stroke-opacity=".65"/><path d="M835.0 132L866.0 113" stroke="#eef2dc" stroke-opacity=".45"/><path d="M842.4 95Q800.4 62 813.4 79Q823.4 93 842.4 95" fill="#36452a" opacity=".72" stroke="#b6ce73" stroke-opacity=".65"/><path d="M842.4 95L813.4 79" stroke="#eef2dc" stroke-opacity=".45"/><path d="M849.8 58Q908.8 31 895.8 48Q885.8 62 849.8 58" fill="#36452a" opacity=".72" stroke="#b6ce73" stroke-opacity=".65"/><path d="M849.8 58L895.8 48" stroke="#eef2dc" stroke-opacity=".45"/><path d="M857.2 21Q813.2 -14 826.2 3Q836.2 17 857.2 21" fill="#b6ce73" opacity=".72" stroke="#b6ce73" stroke-opacity=".65"/><path d="M857.2 21L826.2 3" stroke="#eef2dc" stroke-opacity=".45"/><path d="M987 190Q990 167 1017 0" fill="none" stroke="#36452a" stroke-width="3" opacity=".78"/><path d="M1017.0 167Q952.0 136 965.0 153Q975.0 167 1017.0 167" fill="#222a1d" opacity=".72" stroke="#b6ce73" stroke-opacity=".65"/><path d="M1017.0 167L965.0 153" stroke="#eef2dc" stroke-opacity=".45"/><path d="M1024.4 130Q1065.4 100 1052.4 117Q1042.4 131 1024.4 130" fill="#36452a" opacity=".72" stroke="#b6ce73" stroke-opacity=".65"/><path d="M1024.4 130L1052.4 117" stroke="#eef2dc" stroke-opacity=".45"/><path d="M1031.8 93Q975.8 62 988.8 79Q998.8 93 1031.8 93" fill="#36452a" opacity=".72" stroke="#b6ce73" stroke-opacity=".65"/><path d="M1031.8 93L988.8 79" stroke="#eef2dc" stroke-opacity=".45"/><path d="M1039.2 56Q1077.2 17 1064.2 34Q1054.2 48 1039.2 56" fill="#222a1d" opacity=".72" stroke="#b6ce73" stroke-opacity=".65"/><path d="M1039.2 56L1064.2 34" stroke="#eef2dc" stroke-opacity=".45"/><path d="M1206 190Q1212 144 1236 0" fill="none" stroke="#36452a" stroke-width="3" opacity=".78"/><path d="M1236.0 144Q1287.0 105 1274.0 122Q1264.0 136 1236.0 144" fill="#222a1d" opacity=".72" stroke="#b6ce73" stroke-opacity=".65"/><path d="M1236.0 144L1274.0 122" stroke="#eef2dc" stroke-opacity=".45"/><path d="M1243.4 107Q1196.4 78 1209.4 95Q1219.4 109 1243.4 107" fill="#36452a" opacity=".72" stroke="#b6ce73" stroke-opacity=".65"/><path d="M1243.4 107L1209.4 95" stroke="#eef2dc" stroke-opacity=".45"/><path d="M1250.8 70Q1298.8 35 1285.8 52Q1275.8 66 1250.8 70" fill="#222a1d" opacity=".72" stroke="#b6ce73" stroke-opacity=".65"/><path d="M1250.8 70L1285.8 52" stroke="#eef2dc" stroke-opacity=".45"/><path d="M1258.2 33Q1212.2 5 1225.2 22Q1235.2 36 1258.2 33" fill="#b6ce73" opacity=".72" stroke="#b6ce73" stroke-opacity=".65"/><path d="M1258.2 33L1225.2 22" stroke="#eef2dc" stroke-opacity=".45"/><path d="M1398 190Q1413 125 1428 0" fill="none" stroke="#36452a" stroke-width="3" opacity=".78"/><path d="M1428.0 125Q1376.0 94 1389.0 111Q1399.0 125 1428.0 125" fill="#36452a" opacity=".72" stroke="#b6ce73" stroke-opacity=".65"/><path d="M1428.0 125L1389.0 111" stroke="#eef2dc" stroke-opacity=".45"/><path d="M1435.4 88Q1480.4 56 1467.4 73Q1457.4 87 1435.4 88" fill="#222a1d" opacity=".72" stroke="#b6ce73" stroke-opacity=".65"/><path d="M1435.4 88L1467.4 73" stroke="#eef2dc" stroke-opacity=".45"/><path d="M1442.8 51Q1383.8 24 1396.8 41Q1406.8 55 1442.8 51" fill="#b6ce73" opacity=".72" stroke="#b6ce73" stroke-opacity=".65"/><path d="M1442.8 51L1396.8 41" stroke="#eef2dc" stroke-opacity=".45"/><path d="M1450.2 14Q1491.2 -16 1478.2 1Q1468.2 15 1450.2 14" fill="#222a1d" opacity=".72" stroke="#b6ce73" stroke-opacity=".65"/><path d="M1450.2 14L1478.2 1" stroke="#eef2dc" stroke-opacity=".45"/><path d="M1567 190Q1592 145 1597 0" fill="none" stroke="#36452a" stroke-width="3" opacity=".78"/><path d="M1597.0 145Q1643.0 114 1630.0 131Q1620.0 145 1597.0 145" fill="#b6ce73" opacity=".72" stroke="#b6ce73" stroke-opacity=".65"/><path d="M1597.0 145L1630.0 131" stroke="#eef2dc" stroke-opacity=".45"/><path d="M1604.4 108Q1546.4 75 1559.4 92Q1569.4 106 1604.4 108" fill="#222a1d" opacity=".72" stroke="#b6ce73" stroke-opacity=".65"/><path d="M1604.4 108L1559.4 92" stroke="#eef2dc" stroke-opacity=".45"/><path d="M1611.8 71Q1663.8 33 1650.8 50Q1640.8 64 1611.8 71" fill="#b6ce73" opacity=".72" stroke="#b6ce73" stroke-opacity=".65"/><path d="M1611.8 71L1650.8 50" stroke="#eef2dc" stroke-opacity=".45"/><path d="M1619.2 34Q1558.2 -5 1571.2 12Q1581.2 26 1619.2 34" fill="#36452a" opacity=".72" stroke="#b6ce73" stroke-opacity=".65"/><path d="M1619.2 34L1571.2 12" stroke="#eef2dc" stroke-opacity=".45"/></g><path d="M0 178h1600" stroke="#b6ce73" stroke-opacity=".52"/></svg>