<svg xmlns="http://www.w3.org/2000/svg" viewBox="0 0 1600 180" preserveAspectRatio="xMidYMid slice"><defs><linearGradient id="sky" x2="0" y2="1"><stop stop-color="#341426"/><stop offset=".58" stop-color="#1b0b18"/><stop offset="1" stop-color="#502821"/></linearGradient><radialGradient id="glow"><stop stop-color="#ff9b46" stop-opacity=".8"/><stop offset=".28" stop-color="#ff9b46" stop-opacity=".24"/><stop offset="1" stop-color="#ff9b46" stop-opacity="0"/></radialGradient><linearGradient id="facet" x2=".8" y2="1"><stop stop-color="#fff0dd" stop-opacity=".7"/><stop offset="1" stop-color="#ff9b46" stop-opacity=".8"/></linearGradient><filter id="soft"><feGaussianBlur stdDeviation="12"/></filter><filter id="shine"><feGaussianBlur stdDeviation="2" result="b"/><feMerge><feMergeNode in="b"/><feMergeNode in="SourceGraphic"/></feMerge></filter></defs><path fill="url(#sky)" d="M0 0h1600v180H0z"/><ellipse cx="224" cy="76" rx="480" ry="90" fill="url(#glow)" filter="url(#soft)"/><circle cx="1138" cy="20" r="1.2" fill="#fff0dd" opacity="0.42"/><circle cx="586" cy="101" r="1" fill="#ff9b46" opacity="0.67"/><circle cx="47" cy="96" r="0.8" fill="#ff9b46" opacity="0.52"/><circle cx="612" cy="19" r="1" fill="#fff0dd" opacity="0.24"/><circle cx="35" cy="100" r="2" fill="#ff9b46" opacity="0.56"/><circle cx="824" cy="75" r="1.6" fill="#fff0dd" opacity="0.42"/><circle cx="772" cy="97" r="1.2" fill="#fff0dd" opacity="0.73"/><circle cx="1060" cy="46" r="0.8" fill="#ff9b46" opacity="0.35"/><circle cx="885" cy="23" r="0.8" fill="#ff9b46" opacity="0.44"/><circle cx="883" cy="144" r="1" fill="#ff9b46" opacity="0.23"/><circle cx="1569" cy="82" r="1.2" fill="#fff0dd" opacity="0.58"/><circle cx="997" cy="110" r="0.8" fill="#fff0dd" opacity="0.77"/><circle cx="1039" cy="114" r="2" fill="#fff0dd" opacity="0.30"/><circle cx="915" cy="81" r="2" fill="#fff0dd" opacity="0.29"/><circle cx="947" cy="53" r="1" fill="#fff0dd" opacity="0.69"/><circle cx="132" cy="97" r="0.8" fill="#ff9b46" opacity="0.59"/><circle cx="769" cy="59" r="0.8" fill="#fff0dd" opacity="0.52"/><circle cx="1310" cy="34" r="0.8" fill="#ff9b46" opacity="0.58"/><circle cx="937" cy="74" r="0.8" fill="#fff0dd" opacity="0.27"/><circle cx="984" cy="38" r="1.2" fill="#ff9b46" opacity="0.35"/><circle cx="546" cy="100" r="1.2" fill="#fff0dd" opacity="0.43"/><circle cx="1477" cy="106" r="1" fill="#fff0dd" opacity="0.24"/><circle cx="970" cy="93" r="1.2" fill="#fff0dd" opacity="0.45"/><circle cx="55" cy="112" r="1.2" fill="#ff9b46" opacity="0.59"/><circle cx="828" cy="113" r="1" fill="#ff9b46" opacity="0.49"/><circle cx="894" cy="80" r="2" fill="#fff0dd" opacity="0.39"/><circle cx="727" cy="46" r="0.8" fill="#fff0dd" opacity="0.51"/><circle cx="1114" cy="62" r="1.2" fill="#fff0dd" opacity="0.44"/><circle cx="390" cy="125" r="0.8" fill="#ff9b46" opacity="0.61"/><circle cx="41" cy="24" r="2" fill="#ff9b46" opacity="0.54"/><circle cx="551" cy="78" r="1.2" fill="#ff9b46" opacity="0.35"/><circle cx="1473" cy="172" r="1.2" fill="#ff9b46" opacity="0.71"/><circle cx="1332" cy="99" r="1.2" fill="#fff0dd" opacity="0.30"/><circle cx="140" cy="60" r="2" fill="#fff0dd" opacity="0.24"/><circle cx="551" cy="118" r="1" fill="#fff0dd" opacity="0.30"/><circle cx="1351" cy="130" r="1" fill="#ff9b46" opacity="0.69"/><circle cx="642" cy="82" r="1.6" fill="#ff9b46" opacity="0.65"/><circle cx="1435" cy="152" r="1" fill="#ff9b46" opacity="0.26"/><circle cx="212" cy="89" r="2" fill="#fff0dd" opacity="0.26"/><circle cx="868" cy="66" r="2" fill="#ff9b46" opacity="0.45"/><circle cx="447" cy="117" r="1.2" fill="#fff0dd" opacity="0.50"/><circle cx="878" cy="91" r="2" fill="#fff0dd" opacity="0.75"/><circle cx="226" cy="58" r="2" fill="#ff9b46" opacity="0.60"/><circle cx="618" cy="151" r="1" fill="#fff0dd" opacity="0.66"/><circle cx="1076" cy="115" r="0.8" fill="#ff9b46" opacity="0.37"/><circle cx="702" cy="117" r="1.6" fill="#fff0dd" opacity="0.33"/><circle cx="336" cy="144" r="2" fill="#fff0dd" opacity="0.52"/><circle cx="1585" cy="147" r="1.2" fill="#fff0dd" opacity="0.42"/><circle cx="822" cy="68" r="2" fill="#fff0dd" opacity="0.33"/><circle cx="1463" cy="19" r="0.8" fill="#ff9b46" opacity="0.53"/><circle cx="864" cy="108" r="0.8" fill="#ff9b46" opacity="0.69"/><circle cx="464" cy="58" r="0.8" fill="#fff0dd" opacity="0.26"/><circle cx="1244" cy="127" r="1.6" fill="#fff0dd" opacity="0.26"/><circle cx="1596" cy="149" r="1.6" fill="#ff9b46" opacity="0.37"/><circle cx="1430" cy="35" r="1.6" fill="#ff9b46" opacity="0.29"/><circle cx="1508" cy="44" r="1.6" fill="#fff0dd" opacity="0.61"/><circle cx="1090" cy="26" r="2" fill="#ff9b46" opacity="0.26"/><circle cx="1009" cy="36" r="1.2" fill="#ff9b46" opacity="0.71"/><circle cx="854" cy="126" r="1" fill="#fff0dd" opacity="0.57"/><circle cx="1453" cy="93" r="2" fill="#ff9b46" opacity="0.55"/><circle cx="1438" cy="131" r="1.6" fill="#fff0dd" opacity="0.50"/><circle cx="757" cy="158" r="1" fill="#ff9b46" opacity="0.78"/><circle cx="361" cy="142" r="1.6" fill="#ff9b46" opacity="0.31"/><circle cx="140" cy="132" r="0.8" fill="#ff9b46" opacity="0.23"/><circle cx="1060" cy="45" r="1" fill="#fff0dd" opacity="0.24"/><circle cx="1074" cy="144" r="1.2" fill="#ff9b46" opacity="0.22"/><circle cx="333" cy="13" r="1.6" fill="#fff0dd" opacity="0.74"/><circle cx="376" cy="158" r="1.2" fill="#ff9b46" opacity="0.45"/><circle cx="1479" cy="154" r="1" fill="#fff0dd" opacity="0.48"/><circle cx="765" cy="143" r="1.6" fill="#fff0dd" opacity="0.45"/><circle cx="1254" cy="13" r="0.8" fill="#ff9b46" opacity="0.67"/><circle cx="1232" cy="168" r="0.8" fill="#ff9b46" opacity="0.22"/><circle cx="716" cy="161" r="1" fill="#fff0dd" opacity="0.42"/><circle cx="1457" cy="173" r="0.8" fill="#fff0dd" opacity="0.30"/><circle cx="346" cy="69" r="0.8" fill="#fff0dd" opacity="0.74"/><circle cx="1477" cy="10" r="1.6" fill="#ff9b46" opacity="0.69"/><ellipse cx="1306" cy="57" rx="136" ry="23.1" fill="none" stroke="#ff9b46" stroke-opacity=".42" stroke-width="2" transform="rotate(-12 1306 57)"/><circle cx="1306" cy="57" r="61.2" fill="url(#glow)"/><circle cx="1306" cy="57" r="34" fill="url(#facet)"/><path d="M1272 57q34 -23.8 68 0q-34 23.8 -68 0" fill="none" stroke="#fff0dd" stroke-opacity=".6"/><path d="M378 79q20 -14 40 0" fill="none" stroke="#ff9b46" stroke-opacity=".35" filter="url(#shine)"/><path d="M1438 126q20 -14 40 0" fill="none" stroke="#ff9b46" stroke-opacity=".35" filter="url(#shine)"/><path d="M700 48q43 -14 86 0" fill="none" stroke="#ff9b46" stroke-opacity=".35" filter="url(#shine)"/><path d="M77 96q23 -14 46 0" fill="none" stroke="#ff9b46" stroke-opacity=".35" filter="url(#shine)"/><path d="M853 24q57 -14 114 0" fill="none" stroke="#ff9b46" stroke-opacity=".35" filter="url(#shine)"/><path d="M439 135q57 -14 114 0" fill="none" stroke="#ff9b46" stroke-opacity=".35" filter="url(#shine)"/><path d="M0 178h1600" stroke="#ff9b46" stroke-opacity=".52"/></svg>