<svg xmlns="http://www.w3.org/2000/svg" viewBox="0 0 1600 180" preserveAspectRatio="xMidYMid slice"><defs><linearGradient id="sky" x2="0" y2="1"><stop stop-color="#321b34"/><stop offset=".58" stop-color="#1d1020"/><stop offset="1" stop-color="#553043"/></linearGradient><radialGradient id="glow"><stop stop-color="#ff9ebd" stop-opacity=".8"/><stop offset=".28" stop-color="#ff9ebd" stop-opacity=".24"/><stop offset="1" stop-color="#ff9ebd" stop-opacity="0"/></radialGradient><linearGradient id="facet" x2=".8" y2="1"><stop stop-color="#fff0f4" stop-opacity=".7"/><stop offset="1" stop-color="#ff9ebd" stop-opacity=".8"/></linearGradient><filter id="soft"><feGaussianBlur stdDeviation="12"/></filter><filter id="shine"><feGaussianBlur stdDeviation="2" result="b"/><feMerge><feMergeNode in="b"/><feMergeNode in="SourceGraphic"/></feMerge></filter></defs><path fill="url(#sky)" d="M0 0h1600v180H0z"/><ellipse cx="1001" cy="24" rx="480" ry="90" fill="url(#glow)" filter="url(#soft)"/><circle cx="17" cy="89" r="0.8" fill="#ff9ebd" opacity="0.25"/><circle cx="143" cy="131" r="0.8" fill="#ff9ebd" opacity="0.77"/><circle cx="1079" cy="144" r="2" fill="#ff9ebd" opacity="0.54"/><circle cx="623" cy="137" r="1.6" fill="#fff0f4" opacity="0.25"/><circle cx="368" cy="107" r="0.8" fill="#fff0f4" opacity="0.54"/><circle cx="911" cy="60" r="1.2" fill="#ff9ebd" opacity="0.32"/><circle cx="626" cy="128" r="1.2" fill="#ff9ebd" opacity="0.46"/><circle cx="410" cy="110" r="1.6" fill="#fff0f4" opacity="0.35"/><circle cx="1232" cy="55" r="1" fill="#ff9ebd" opacity="0.23"/><circle cx="334" cy="25" r="1.2" fill="#fff0f4" opacity="0.40"/><circle cx="1471" cy="145" r="1" fill="#ff9ebd" opacity="0.31"/><circle cx="766" cy="69" r="1" fill="#ff9ebd" opacity="0.41"/><circle cx="123" cy="26" r="1" fill="#fff0f4" opacity="0.40"/><circle cx="381" cy="160" r="2" fill="#ff9ebd" opacity="0.69"/><circle cx="442" cy="42" r="1.6" fill="#fff0f4" opacity="0.42"/><circle cx="783" cy="34" r="2" fill="#fff0f4" opacity="0.75"/><circle cx="315" cy="144" r="1.6" fill="#ff9ebd" opacity="0.28"/><circle cx="734" cy="104" r="0.8" fill="#ff9ebd" opacity="0.76"/><circle cx="733" cy="24" r="1.6" fill="#fff0f4" opacity="0.42"/><circle cx="640" cy="127" r="2" fill="#ff9ebd" opacity="0.78"/><circle cx="410" cy="50" r="1.6" fill="#ff9ebd" opacity="0.54"/><circle cx="1435" cy="63" r="1.6" fill="#ff9ebd" opacity="0.41"/><circle cx="448" cy="71" r="1" fill="#ff9ebd" opacity="0.66"/><circle cx="1492" cy="7" r="0.8" fill="#fff0f4" opacity="0.55"/><circle cx="1145" cy="121" r="2" fill="#ff9ebd" opacity="0.56"/><circle cx="578" cy="171" r="1" fill="#ff9ebd" opacity="0.27"/><circle cx="362" cy="13" r="0.8" fill="#fff0f4" opacity="0.34"/><circle cx="573" cy="94" r="2" fill="#fff0f4" opacity="0.58"/><circle cx="1055" cy="127" r="1.2" fill="#ff9ebd" opacity="0.68"/><circle cx="1524" cy="79" r="0.8" fill="#ff9ebd" opacity="0.70"/><circle cx="482" cy="159" r="1" fill="#fff0f4" opacity="0.60"/><circle cx="993" cy="72" r="1.6" fill="#ff9ebd" opacity="0.59"/><circle cx="783" cy="122" r="1" fill="#fff0f4" opacity="0.35"/><circle cx="234" cy="152" r="1.2" fill="#ff9ebd" opacity="0.77"/><circle cx="1341" cy="152" r="1.2" fill="#fff0f4" opacity="0.74"/><circle cx="1319" cy="61" r="1.2" fill="#ff9ebd" opacity="0.52"/><circle cx="1445" cy="167" r="1.6" fill="#fff0f4" opacity="0.53"/><circle cx="808" cy="150" r="2" fill="#ff9ebd" opacity="0.37"/><circle cx="631" cy="152" r="1" fill="#fff0f4" opacity="0.75"/><circle cx="1425" cy="151" r="0.8" fill="#fff0f4" opacity="0.34"/><circle cx="387" cy="66" r="1.2" fill="#ff9ebd" opacity="0.65"/><circle cx="16" cy="42" r="1" fill="#fff0f4" opacity="0.74"/><circle cx="239" cy="168" r="0.8" fill="#ff9ebd" opacity="0.73"/><circle cx="937" cy="10" r="0.8" fill="#fff0f4" opacity="0.34"/><circle cx="1216" cy="33" r="2" fill="#ff9ebd" opacity="0.44"/><circle cx="80" cy="90" r="1" fill="#ff9ebd" opacity="0.55"/><circle cx="1219" cy="20" r="1.6" fill="#fff0f4" opacity="0.55"/><circle cx="367" cy="131" r="1.6" fill="#fff0f4" opacity="0.62"/><circle cx="425" cy="29" r="1" fill="#fff0f4" opacity="0.47"/><circle cx="1456" cy="34" r="1" fill="#fff0f4" opacity="0.70"/><circle cx="257" cy="169" r="1" fill="#fff0f4" opacity="0.61"/><circle cx="403" cy="49" r="1.2" fill="#ff9ebd" opacity="0.64"/><circle cx="980" cy="73" r="2" fill="#ff9ebd" opacity="0.40"/><circle cx="659" cy="155" r="1" fill="#fff0f4" opacity="0.74"/><circle cx="846" cy="95" r="0.8" fill="#fff0f4" opacity="0.38"/><circle cx="307" cy="59" r="1" fill="#fff0f4" opacity="0.70"/><circle cx="1579" cy="81" r="1" fill="#ff9ebd" opacity="0.65"/><circle cx="507" cy="98" r="1.6" fill="#fff0f4" opacity="0.52"/><circle cx="680" cy="111" r="2" fill="#ff9ebd" opacity="0.68"/><circle cx="199" cy="87" r="1" fill="#ff9ebd" opacity="0.71"/><circle cx="732" cy="51" r="1.2" fill="#ff9ebd" opacity="0.30"/><circle cx="602" cy="91" r="1.6" fill="#fff0f4" opacity="0.44"/><circle cx="386" cy="28" r="0.8" fill="#ff9ebd" opacity="0.42"/><circle cx="1416" cy="59" r="1" fill="#ff9ebd" opacity="0.70"/><circle cx="190" cy="139" r="1.6" fill="#ff9ebd" opacity="0.70"/><circle cx="1141" cy="128" r="1.2" fill="#fff0f4" opacity="0.74"/><circle cx="200" cy="39" r="1.6" fill="#fff0f4" opacity="0.38"/><circle cx="56" cy="134" r="1" fill="#fff0f4" opacity="0.62"/><circle cx="1560" cy="136" r="2" fill="#ff9ebd" opacity="0.40"/><circle cx="854" cy="48" r="1.6" fill="#fff0f4" opacity="0.74"/><circle cx="1267" cy="104" r="1" fill="#fff0f4" opacity="0.53"/><circle cx="12" cy="54" r="1.6" fill="#fff0f4" opacity="0.74"/><circle cx="1335" cy="77" r="0.8" fill="#fff0f4" opacity="0.71"/><circle cx="118" cy="112" r="1.6" fill="#fff0f4" opacity="0.30"/><circle cx="1448" cy="83" r="2" fill="#ff9ebd" opacity="0.46"/><circle cx="625" cy="70" r="1" fill="#ff9ebd" opacity="0.53"/><g><path d="M85 190Q80 112 85 61" fill="none" stroke="#553043" stroke-width="3"/><path d="M85 130q34 -30 52 -15q-15 25 -52 15" fill="#321b34" stroke="#ff9ebd" stroke-opacity=".65"/><path d="M85 95q-34 -30 -52 -15q15 25 52 15" fill="#321b34" stroke="#ff9ebd" stroke-opacity=".65"/><ellipse cx="92.9" cy="50.0" rx="5.8" ry="3.5" transform="rotate(0 92.9 50.0)" fill="#553043" opacity=".82"/><ellipse cx="89.9" cy="56.2" rx="5.8" ry="3.5" transform="rotate(51 89.9 56.2)" fill="#ff9ebd" opacity=".82"/><ellipse cx="83.2" cy="57.7" rx="5.8" ry="3.5" transform="rotate(102 83.2 57.7)" fill="#ff9ebd" opacity=".82"/><ellipse cx="77.9" cy="53.4" rx="5.8" ry="3.5" transform="rotate(153 77.9 53.4)" fill="#ff9ebd" opacity=".82"/><ellipse cx="77.9" cy="46.6" rx="5.8" ry="3.5" transform="rotate(204 77.9 46.6)" fill="#553043" opacity=".82"/><ellipse cx="83.2" cy="42.3" rx="5.8" ry="3.5" transform="rotate(255 83.2 42.3)" fill="#553043" opacity=".82"/><ellipse cx="89.9" cy="43.8" rx="5.8" ry="3.5" transform="rotate(306 89.9 43.8)" fill="#ff9ebd" opacity=".82"/><circle cx="85" cy="50" r="3.3" fill="#321b34"/><path d="M279 190Q267 112 279 102" fill="none" stroke="#553043" stroke-width="3"/><path d="M279 130q-34 -30 -52 -15q15 25 52 15" fill="#321b34" stroke="#ff9ebd" stroke-opacity=".65"/><path d="M279 95q34 -30 52 -15q-15 25 -52 15" fill="#321b34" stroke="#ff9ebd" stroke-opacity=".65"/><ellipse cx="289.8" cy="87.0" rx="8.0" ry="4.8" transform="rotate(0 289.8 87.0)" fill="#ff9ebd" opacity=".82"/><ellipse cx="285.7" cy="95.4" rx="8.0" ry="4.8" transform="rotate(51 285.7 95.4)" fill="#553043" opacity=".82"/><ellipse cx="276.6" cy="97.5" rx="8.0" ry="4.8" transform="rotate(102 276.6 97.5)" fill="#ff9ebd" opacity=".82"/><ellipse cx="269.3" cy="91.7" rx="8.0" ry="4.8" transform="rotate(153 269.3 91.7)" fill="#fff0f4" opacity=".82"/><ellipse cx="269.3" cy="82.3" rx="8.0" ry="4.8" transform="rotate(204 269.3 82.3)" fill="#553043" opacity=".82"/><ellipse cx="276.6" cy="76.5" rx="8.0" ry="4.8" transform="rotate(255 276.6 76.5)" fill="#553043" opacity=".82"/><ellipse cx="285.7" cy="78.6" rx="8.0" ry="4.8" transform="rotate(306 285.7 78.6)" fill="#ff9ebd" opacity=".82"/><circle cx="279" cy="87" r="4.5" fill="#321b34"/><path d="M501 190Q470 112 501 99" fill="none" stroke="#553043" stroke-width="3"/><path d="M501 130q34 -30 52 -15q-15 25 -52 15" fill="#321b34" stroke="#ff9ebd" stroke-opacity=".65"/><path d="M501 95q-34 -30 -52 -15q15 25 52 15" fill="#321b34" stroke="#ff9ebd" stroke-opacity=".65"/><ellipse cx="513.2" cy="82.0" rx="9.0" ry="5.4" transform="rotate(0 513.2 82.0)" fill="#553043" opacity=".82"/><ellipse cx="508.6" cy="91.6" rx="9.0" ry="5.4" transform="rotate(51 508.6 91.6)" fill="#ff9ebd" opacity=".82"/><ellipse cx="498.3" cy="93.9" rx="9.0" ry="5.4" transform="rotate(102 498.3 93.9)" fill="#fff0f4" opacity=".82"/><ellipse cx="490.0" cy="87.3" rx="9.0" ry="5.4" transform="rotate(153 490.0 87.3)" fill="#ff9ebd" opacity=".82"/><ellipse cx="490.0" cy="76.7" rx="9.0" ry="5.4" transform="rotate(204 490.0 76.7)" fill="#fff0f4" opacity=".82"/><ellipse cx="498.3" cy="70.1" rx="9.0" ry="5.4" transform="rotate(255 498.3 70.1)" fill="#553043" opacity=".82"/><ellipse cx="508.6" cy="72.4" rx="9.0" ry="5.4" transform="rotate(306 508.6 72.4)" fill="#ff9ebd" opacity=".82"/><circle cx="501" cy="82" r="5.1" fill="#321b34"/><path d="M678 190Q636 112 678 65" fill="none" stroke="#553043" stroke-width="3"/><path d="M678 130q-34 -30 -52 -15q15 25 52 15" fill="#321b34" stroke="#ff9ebd" stroke-opacity=".65"/><path d="M678 95q34 -30 52 -15q-15 25 -52 15" fill="#321b34" stroke="#ff9ebd" stroke-opacity=".65"/><ellipse cx="689.5" cy="49.0" rx="8.5" ry="5.1" transform="rotate(0 689.5 49.0)" fill="#ff9ebd" opacity=".82"/><ellipse cx="685.2" cy="58.0" rx="8.5" ry="5.1" transform="rotate(51 685.2 58.0)" fill="#fff0f4" opacity=".82"/><ellipse cx="675.4" cy="60.2" rx="8.5" ry="5.1" transform="rotate(102 675.4 60.2)" fill="#fff0f4" opacity=".82"/><ellipse cx="667.6" cy="54.0" rx="8.5" ry="5.1" transform="rotate(153 667.6 54.0)" fill="#553043" opacity=".82"/><ellipse cx="667.6" cy="44.0" rx="8.5" ry="5.1" transform="rotate(204 667.6 44.0)" fill="#fff0f4" opacity=".82"/><ellipse cx="675.4" cy="37.8" rx="8.5" ry="5.1" transform="rotate(255 675.4 37.8)" fill="#553043" opacity=".82"/><ellipse cx="685.2" cy="40.0" rx="8.5" ry="5.1" transform="rotate(306 685.2 40.0)" fill="#fff0f4" opacity=".82"/><circle cx="678" cy="49" r="4.8" fill="#321b34"/><path d="M931 190Q942 112 931 77" fill="none" stroke="#553043" stroke-width="3"/><path d="M931 130q34 -30 52 -15q-15 25 -52 15" fill="#321b34" stroke="#ff9ebd" stroke-opacity=".65"/><path d="M931 95q-34 -30 -52 -15q15 25 52 15" fill="#321b34" stroke="#ff9ebd" stroke-opacity=".65"/><ellipse cx="940.4" cy="64.0" rx="6.9" ry="4.2" transform="rotate(0 940.4 64.0)" fill="#ff9ebd" opacity=".82"/><ellipse cx="936.8" cy="71.3" rx="6.9" ry="4.2" transform="rotate(51 936.8 71.3)" fill="#fff0f4" opacity=".82"/><ellipse cx="928.9" cy="73.1" rx="6.9" ry="4.2" transform="rotate(102 928.9 73.1)" fill="#ff9ebd" opacity=".82"/><ellipse cx="922.6" cy="68.1" rx="6.9" ry="4.2" transform="rotate(153 922.6 68.1)" fill="#553043" opacity=".82"/><ellipse cx="922.6" cy="59.9" rx="6.9" ry="4.2" transform="rotate(204 922.6 59.9)" fill="#ff9ebd" opacity=".82"/><ellipse cx="928.9" cy="54.9" rx="6.9" ry="4.2" transform="rotate(255 928.9 54.9)" fill="#ff9ebd" opacity=".82"/><ellipse cx="936.8" cy="56.7" rx="6.9" ry="4.2" transform="rotate(306 936.8 56.7)" fill="#553043" opacity=".82"/><circle cx="931" cy="64" r="3.9" fill="#321b34"/><path d="M1113 190Q1122 112 1113 73" fill="none" stroke="#553043" stroke-width="3"/><path d="M1113 130q-34 -30 -52 -15q15 25 52 15" fill="#321b34" stroke="#ff9ebd" stroke-opacity=".65"/><path d="M1113 95q34 -30 52 -15q-15 25 -52 15" fill="#321b34" stroke="#ff9ebd" stroke-opacity=".65"/><ellipse cx="1123.1" cy="59.0" rx="7.4" ry="4.5" transform="rotate(0 1123.1 59.0)" fill="#fff0f4" opacity=".82"/><ellipse cx="1119.3" cy="66.9" rx="7.4" ry="4.5" transform="rotate(51 1119.3 66.9)" fill="#ff9ebd" opacity=".82"/><ellipse cx="1110.8" cy="68.8" rx="7.4" ry="4.5" transform="rotate(102 1110.8 68.8)" fill="#ff9ebd" opacity=".82"/><ellipse cx="1103.9" cy="63.4" rx="7.4" ry="4.5" transform="rotate(153 1103.9 63.4)" fill="#ff9ebd" opacity=".82"/><ellipse cx="1103.9" cy="54.6" rx="7.4" ry="4.5" transform="rotate(204 1103.9 54.6)" fill="#ff9ebd" opacity=".82"/><ellipse cx="1110.8" cy="49.2" rx="7.4" ry="4.5" transform="rotate(255 1110.8 49.2)" fill="#fff0f4" opacity=".82"/><ellipse cx="1119.3" cy="51.1" rx="7.4" ry="4.5" transform="rotate(306 1119.3 51.1)" fill="#fff0f4" opacity=".82"/><circle cx="1113" cy="59" r="4.2" fill="#321b34"/><path d="M1291 190Q1293 112 1291 82" fill="none" stroke="#553043" stroke-width="3"/><path d="M1291 130q34 -30 52 -15q-15 25 -52 15" fill="#321b34" stroke="#ff9ebd" stroke-opacity=".65"/><path d="M1291 95q-34 -30 -52 -15q15 25 52 15" fill="#321b34" stroke="#ff9ebd" stroke-opacity=".65"/><ellipse cx="1298.9" cy="71.0" rx="5.8" ry="3.5" transform="rotate(0 1298.9 71.0)" fill="#fff0f4" opacity=".82"/><ellipse cx="1295.9" cy="77.2" rx="5.8" ry="3.5" transform="rotate(51 1295.9 77.2)" fill="#fff0f4" opacity=".82"/><ellipse cx="1289.2" cy="78.7" rx="5.8" ry="3.5" transform="rotate(102 1289.2 78.7)" fill="#ff9ebd" opacity=".82"/><ellipse cx="1283.9" cy="74.4" rx="5.8" ry="3.5" transform="rotate(153 1283.9 74.4)" fill="#553043" opacity=".82"/><ellipse cx="1283.9" cy="67.6" rx="5.8" ry="3.5" transform="rotate(204 1283.9 67.6)" fill="#fff0f4" opacity=".82"/><ellipse cx="1289.2" cy="63.3" rx="5.8" ry="3.5" transform="rotate(255 1289.2 63.3)" fill="#553043" opacity=".82"/><ellipse cx="1295.9" cy="64.8" rx="5.8" ry="3.5" transform="rotate(306 1295.9 64.8)" fill="#fff0f4" opacity=".82"/><circle cx="1291" cy="71" r="3.3" fill="#321b34"/><path d="M1545 190Q1503 112 1545 61" fill="none" stroke="#553043" stroke-width="3"/><path d="M1545 130q-34 -30 -52 -15q15 25 52 15" fill="#321b34" stroke="#ff9ebd" stroke-opacity=".65"/><path d="M1545 95q34 -30 52 -15q-15 25 -52 15" fill="#321b34" stroke="#ff9ebd" stroke-opacity=".65"/><ellipse cx="1552.9" cy="50.0" rx="5.8" ry="3.5" transform="rotate(0 1552.9 50.0)" fill="#fff0f4" opacity=".82"/><ellipse cx="1549.9" cy="56.2" rx="5.8" ry="3.5" transform="rotate(51 1549.9 56.2)" fill="#fff0f4" opacity=".82"/><ellipse cx="1543.2" cy="57.7" rx="5.8" ry="3.5" transform="rotate(102 1543.2 57.7)" fill="#553043" opacity=".82"/><ellipse cx="1537.9" cy="53.4" rx="5.8" ry="3.5" transform="rotate(153 1537.9 53.4)" fill="#ff9ebd" opacity=".82"/><ellipse cx="1537.9" cy="46.6" rx="5.8" ry="3.5" transform="rotate(204 1537.9 46.6)" fill="#fff0f4" opacity=".82"/><ellipse cx="1543.2" cy="42.3" rx="5.8" ry="3.5" transform="rotate(255 1543.2 42.3)" fill="#fff0f4" opacity=".82"/><ellipse cx="1549.9" cy="43.8" rx="5.8" ry="3.5" transform="rotate(306 1549.9 43.8)" fill="#ff9ebd" opacity=".82"/><circle cx="1545" cy="50" r="3.3" fill="#321b34"/></g><path d="M0 178h1600" stroke="#ff9ebd" stroke-opacity=".52"/></svg>