<svg xmlns="http://www.w3.org/2000/svg" viewBox="0 0 1600 180" preserveAspectRatio="xMidYMid slice"><defs><linearGradient id="sky" x2="0" y2="1"><stop stop-color="#103543"/><stop offset=".58" stop-color="#071b23"/><stop offset="1" stop-color="#15505a"/></linearGradient><radialGradient id="glow"><stop stop-color="#64efce" stop-opacity=".8"/><stop offset=".28" stop-color="#64efce" stop-opacity=".24"/><stop offset="1" stop-color="#64efce" stop-opacity="0"/></radialGradient><linearGradient id="facet" x2=".8" y2="1"><stop stop-color="#e4fbf8" stop-opacity=".7"/><stop offset="1" stop-color="#64efce" stop-opacity=".8"/></linearGradient><filter id="soft"><feGaussianBlur stdDeviation="12"/></filter><filter id="shine"><feGaussianBlur stdDeviation="2" result="b"/><feMerge><feMergeNode in="b"/><feMergeNode in="SourceGraphic"/></feMerge></filter></defs><path fill="url(#sky)" d="M0 0h1600v180H0z"/><ellipse cx="784" cy="125" rx="480" ry="90" fill="url(#glow)" filter="url(#soft)"/><circle cx="671" cy="166" r="0.8" fill="#64efce" opacity="0.36"/><circle cx="854" cy="106" r="0.8" fill="#e4fbf8" opacity="0.27"/><circle cx="1128" cy="158" r="1.2" fill="#64efce" opacity="0.54"/><circle cx="1598" cy="32" r="1" fill="#64efce" opacity="0.47"/><circle cx="442" cy="169" r="0.8" fill="#e4fbf8" opacity="0.41"/><circle cx="1259" cy="105" r="2" fill="#64efce" opacity="0.36"/><circle cx="1498" cy="54" r="2" fill="#64efce" opacity="0.51"/><circle cx="1575" cy="126" r="1" fill="#64efce" opacity="0.31"/><circle cx="1206" cy="128" r="1.2" fill="#e4fbf8" opacity="0.62"/><circle cx="1142" cy="151" r="1" fill="#64efce" opacity="0.34"/><circle cx="893" cy="53" r="1.6" fill="#64efce" opacity="0.50"/><circle cx="1092" cy="76" r="2" fill="#e4fbf8" opacity="0.27"/><circle cx="678" cy="98" r="1.6" fill="#e4fbf8" opacity="0.51"/><circle cx="1532" cy="68" r="1.6" fill="#e4fbf8" opacity="0.43"/><circle cx="612" cy="52" r="1.2" fill="#64efce" opacity="0.34"/><circle cx="819" cy="114" r="1.6" fill="#e4fbf8" opacity="0.66"/><circle cx="1196" cy="114" r="2" fill="#e4fbf8" opacity="0.29"/><circle cx="735" cy="66" r="1.6" fill="#e4fbf8" opacity="0.65"/><circle cx="1587" cy="105" r="1.6" fill="#64efce" opacity="0.73"/><circle cx="898" cy="108" r="0.8" fill="#e4fbf8" opacity="0.57"/><circle cx="222" cy="161" r="0.8" fill="#64efce" opacity="0.42"/><circle cx="1185" cy="81" r="0.8" fill="#64efce" opacity="0.48"/><circle cx="290" cy="126" r="1" fill="#e4fbf8" opacity="0.76"/><circle cx="1417" cy="48" r="1.6" fill="#e4fbf8" opacity="0.69"/><circle cx="1353" cy="126" r="0.8" fill="#e4fbf8" opacity="0.42"/><circle cx="764" cy="133" r="1.6" fill="#64efce" opacity="0.74"/><circle cx="48" cy="58" r="1.2" fill="#e4fbf8" opacity="0.54"/><circle cx="649" cy="91" r="2" fill="#e4fbf8" opacity="0.24"/><circle cx="81" cy="74" r="0.8" fill="#64efce" opacity="0.43"/><circle cx="462" cy="83" r="2" fill="#e4fbf8" opacity="0.38"/><circle cx="1065" cy="166" r="1" fill="#64efce" opacity="0.74"/><circle cx="1085" cy="25" r="2" fill="#e4fbf8" opacity="0.53"/><circle cx="1479" cy="103" r="0.8" fill="#e4fbf8" opacity="0.40"/><circle cx="350" cy="145" r="0.8" fill="#e4fbf8" opacity="0.58"/><circle cx="1591" cy="149" r="1.2" fill="#64efce" opacity="0.27"/><circle cx="48" cy="21" r="1" fill="#e4fbf8" opacity="0.35"/><circle cx="1264" cy="112" r="1.6" fill="#64efce" opacity="0.36"/><circle cx="412" cy="63" r="2" fill="#e4fbf8" opacity="0.46"/><circle cx="89" cy="119" r="0.8" fill="#64efce" opacity="0.52"/><circle cx="487" cy="166" r="1.6" fill="#64efce" opacity="0.48"/><circle cx="599" cy="9" r="1" fill="#e4fbf8" opacity="0.33"/><circle cx="185" cy="116" r="1.6" fill="#64efce" opacity="0.66"/><circle cx="1266" cy="148" r="1.6" fill="#e4fbf8" opacity="0.41"/><circle cx="668" cy="60" r="1" fill="#e4fbf8" opacity="0.23"/><circle cx="1433" cy="161" r="1" fill="#64efce" opacity="0.53"/><circle cx="1437" cy="134" r="2" fill="#e4fbf8" opacity="0.40"/><circle cx="519" cy="115" r="1" fill="#e4fbf8" opacity="0.57"/><circle cx="276" cy="128" r="2" fill="#64efce" opacity="0.67"/><circle cx="1415" cy="32" r="0.8" fill="#e4fbf8" opacity="0.55"/><circle cx="1085" cy="23" r="2" fill="#e4fbf8" opacity="0.24"/><circle cx="1169" cy="42" r="1.6" fill="#64efce" opacity="0.27"/><circle cx="307" cy="25" r="1" fill="#e4fbf8" opacity="0.56"/><circle cx="639" cy="81" r="1" fill="#e4fbf8" opacity="0.28"/><circle cx="301" cy="63" r="1" fill="#e4fbf8" opacity="0.24"/><circle cx="956" cy="49" r="0.8" fill="#e4fbf8" opacity="0.77"/><circle cx="573" cy="142" r="1" fill="#64efce" opacity="0.22"/><circle cx="1030" cy="30" r="1" fill="#64efce" opacity="0.29"/><circle cx="198" cy="75" r="1.6" fill="#64efce" opacity="0.43"/><circle cx="1588" cy="7" r="1" fill="#64efce" opacity="0.47"/><circle cx="24" cy="72" r="1.2" fill="#64efce" opacity="0.62"/><circle cx="143" cy="141" r="1" fill="#64efce" opacity="0.40"/><circle cx="1181" cy="137" r="1.2" fill="#e4fbf8" opacity="0.40"/><circle cx="1234" cy="121" r="0.8" fill="#64efce" opacity="0.62"/><circle cx="947" cy="51" r="1.6" fill="#64efce" opacity="0.74"/><circle cx="798" cy="74" r="2" fill="#e4fbf8" opacity="0.64"/><circle cx="1329" cy="70" r="1.2" fill="#64efce" opacity="0.47"/><circle cx="1556" cy="155" r="0.8" fill="#e4fbf8" opacity="0.26"/><circle cx="1491" cy="137" r="2" fill="#64efce" opacity="0.44"/><circle cx="682" cy="35" r="0.8" fill="#e4fbf8" opacity="0.53"/><circle cx="488" cy="122" r="1.6" fill="#64efce" opacity="0.37"/><circle cx="111" cy="48" r="0.8" fill="#64efce" opacity="0.29"/><circle cx="777" cy="97" r="0.8" fill="#64efce" opacity="0.32"/><circle cx="1234" cy="56" r="1.2" fill="#64efce" opacity="0.74"/><circle cx="13" cy="115" r="1.2" fill="#64efce" opacity="0.38"/><circle cx="1360" cy="62" r="1" fill="#64efce" opacity="0.48"/><circle cx="319" cy="9" r="1.6" fill="#64efce" opacity="0.41"/><path d="M0 68Q200 56 400 68T800 68T1200 68T1600 68" fill="none" stroke="#103543" stroke-width="7.0" opacity="0.35"/><path d="M0 91Q200 77 400 91T800 91T1200 91T1600 91" fill="none" stroke="#15505a" stroke-width="6.45" opacity="0.43"/><path d="M0 114Q200 98 400 114T800 114T1200 114T1600 114" fill="none" stroke="#071b23" stroke-width="5.9" opacity="0.51"/><path d="M0 137Q200 119 400 137T800 137T1200 137T1600 137" fill="none" stroke="#64efce" stroke-width="5.35" opacity="0.59"/><path d="M0 160Q200 140 400 160T800 160T1200 160T1600 160" fill="none" stroke="#e4fbf8" stroke-width="4.8" opacity="0.67"/><path d="M0 183Q200 161 400 183T800 183T1200 183T1600 183" fill="none" stroke="#103543" stroke-width="4.25" opacity="0.75"/><circle cx="1489" cy="117" r="3" fill="none" stroke="#e4fbf8" stroke-opacity=".54"/><circle cx="937" cy="58" r="2" fill="none" stroke="#e4fbf8" stroke-opacity=".54"/><circle cx="1480" cy="65" r="4" fill="none" stroke="#e4fbf8" stroke-opacity=".54"/><circle cx="345" cy="63" r="5" fill="none" stroke="#e4fbf8" stroke-opacity=".54"/><circle cx="29" cy="33" r="4" fill="none" stroke="#e4fbf8" stroke-opacity=".54"/><circle cx="1518" cy="29" r="4" fill="none" stroke="#e4fbf8" stroke-opacity=".54"/><circle cx="974" cy="145" r="5" fill="none" stroke="#e4fbf8" stroke-opacity=".54"/><circle cx="1192" cy="66" r="6" fill="none" stroke="#e4fbf8" stroke-opacity=".54"/><circle cx="500" cy="121" r="3" fill="none" stroke="#e4fbf8" stroke-opacity=".54"/><circle cx="1400" cy="93" r="7" fill="none" stroke="#e4fbf8" stroke-opacity=".54"/><circle cx="200" cy="103" r="6" fill="none" stroke="#e4fbf8" stroke-opacity=".54"/><circle cx="950" cy="41" r="4" fill="none" stroke="#e4fbf8" stroke-opacity=".54"/><circle cx="1307" cy="151" r="7" fill="none" stroke="#e4fbf8" stroke-opacity=".54"/><path d="M0 178h1600" stroke="#64efce" stroke-opacity=".52"/></svg>