<svg xmlns="http://www.w3.org/2000/svg" viewBox="0 0 1600 180" preserveAspectRatio="xMidYMid slice"><defs><linearGradient id="sky" x2="0" y2="1"><stop stop-color="#393044"/><stop offset=".58" stop-color="#201c2a"/><stop offset="1" stop-color="#50413b"/></linearGradient><radialGradient id="glow"><stop stop-color="#ffbd91" stop-opacity=".8"/><stop offset=".28" stop-color="#ffbd91" stop-opacity=".24"/><stop offset="1" stop-color="#ffbd91" stop-opacity="0"/></radialGradient><linearGradient id="facet" x2=".8" y2="1"><stop stop-color="#fff5e9" stop-opacity=".7"/><stop offset="1" stop-color="#ffbd91" stop-opacity=".8"/></linearGradient><filter id="soft"><feGaussianBlur stdDeviation="12"/></filter><filter id="shine"><feGaussianBlur stdDeviation="2" result="b"/><feMerge><feMergeNode in="b"/><feMergeNode in="SourceGraphic"/></feMerge></filter></defs><path fill="url(#sky)" d="M0 0h1600v180H0z"/><ellipse cx="727" cy="139" rx="480" ry="90" fill="url(#glow)" filter="url(#soft)"/><circle cx="51" cy="156" r="1.6" fill="#fff5e9" opacity="0.24"/><circle cx="781" cy="145" r="1.2" fill="#ffbd91" opacity="0.46"/><circle cx="1136" cy="56" r="1" fill="#ffbd91" opacity="0.54"/><circle cx="1355" cy="88" r="1" fill="#fff5e9" opacity="0.54"/><circle cx="223" cy="171" r="1" fill="#fff5e9" opacity="0.56"/><circle cx="176" cy="166" r="1" fill="#ffbd91" opacity="0.52"/><circle cx="110" cy="84" r="1.6" fill="#ffbd91" opacity="0.70"/><circle cx="176" cy="61" r="2" fill="#fff5e9" opacity="0.46"/><circle cx="264" cy="86" r="2" fill="#fff5e9" opacity="0.27"/><circle cx="1105" cy="150" r="1" fill="#ffbd91" opacity="0.23"/><circle cx="206" cy="34" r="1.6" fill="#fff5e9" opacity="0.67"/><circle cx="1432" cy="163" r="1.2" fill="#fff5e9" opacity="0.24"/><circle cx="616" cy="23" r="2" fill="#ffbd91" opacity="0.71"/><circle cx="202" cy="105" r="2" fill="#ffbd91" opacity="0.70"/><circle cx="1527" cy="79" r="1" fill="#ffbd91" opacity="0.28"/><circle cx="1294" cy="153" r="1.6" fill="#fff5e9" opacity="0.33"/><circle cx="839" cy="174" r="1" fill="#fff5e9" opacity="0.33"/><circle cx="203" cy="50" r="1.6" fill="#ffbd91" opacity="0.37"/><circle cx="226" cy="98" r="1.2" fill="#fff5e9" opacity="0.72"/><circle cx="836" cy="115" r="1" fill="#fff5e9" opacity="0.28"/><circle cx="1038" cy="121" r="1.2" fill="#fff5e9" opacity="0.74"/><circle cx="888" cy="16" r="0.8" fill="#fff5e9" opacity="0.50"/><circle cx="656" cy="96" r="2" fill="#fff5e9" opacity="0.43"/><circle cx="983" cy="129" r="1" fill="#fff5e9" opacity="0.33"/><circle cx="1576" cy="7" r="1.6" fill="#fff5e9" opacity="0.46"/><circle cx="1310" cy="116" r="1.2" fill="#fff5e9" opacity="0.57"/><circle cx="317" cy="82" r="1.6" fill="#ffbd91" opacity="0.26"/><circle cx="565" cy="95" r="2" fill="#ffbd91" opacity="0.30"/><circle cx="786" cy="123" r="0.8" fill="#ffbd91" opacity="0.78"/><circle cx="1020" cy="31" r="2" fill="#ffbd91" opacity="0.65"/><circle cx="302" cy="42" r="2" fill="#ffbd91" opacity="0.70"/><circle cx="966" cy="163" r="2" fill="#ffbd91" opacity="0.24"/><circle cx="265" cy="99" r="1.2" fill="#ffbd91" opacity="0.37"/><circle cx="773" cy="24" r="1" fill="#fff5e9" opacity="0.52"/><circle cx="1337" cy="83" r="0.8" fill="#ffbd91" opacity="0.42"/><circle cx="714" cy="69" r="1.2" fill="#ffbd91" opacity="0.74"/><circle cx="423" cy="63" r="1.6" fill="#fff5e9" opacity="0.58"/><circle cx="1208" cy="80" r="1.2" fill="#fff5e9" opacity="0.66"/><circle cx="876" cy="101" r="1" fill="#ffbd91" opacity="0.36"/><circle cx="89" cy="134" r="0.8" fill="#ffbd91" opacity="0.47"/><circle cx="149" cy="75" r="1" fill="#fff5e9" opacity="0.68"/><circle cx="403" cy="76" r="1.2" fill="#fff5e9" opacity="0.68"/><circle cx="330" cy="156" r="1.6" fill="#fff5e9" opacity="0.55"/><circle cx="1145" cy="6" r="1.6" fill="#ffbd91" opacity="0.68"/><circle cx="334" cy="21" r="1.6" fill="#ffbd91" opacity="0.58"/><circle cx="688" cy="98" r="0.8" fill="#ffbd91" opacity="0.44"/><circle cx="516" cy="124" r="1" fill="#fff5e9" opacity="0.26"/><circle cx="968" cy="92" r="0.8" fill="#fff5e9" opacity="0.37"/><circle cx="146" cy="114" r="1" fill="#fff5e9" opacity="0.68"/><circle cx="672" cy="35" r="0.8" fill="#fff5e9" opacity="0.42"/><circle cx="372" cy="153" r="1" fill="#fff5e9" opacity="0.29"/><circle cx="268" cy="68" r="2" fill="#ffbd91" opacity="0.61"/><circle cx="1566" cy="63" r="1.2" fill="#fff5e9" opacity="0.75"/><circle cx="1528" cy="151" r="1" fill="#fff5e9" opacity="0.45"/><circle cx="16" cy="172" r="1.6" fill="#ffbd91" opacity="0.24"/><circle cx="1549" cy="55" r="1.2" fill="#fff5e9" opacity="0.29"/><circle cx="1538" cy="139" r="0.8" fill="#ffbd91" opacity="0.34"/><circle cx="527" cy="104" r="1" fill="#fff5e9" opacity="0.50"/><circle cx="1338" cy="147" r="1" fill="#fff5e9" opacity="0.34"/><circle cx="470" cy="110" r="2" fill="#fff5e9" opacity="0.63"/><circle cx="923" cy="173" r="1" fill="#ffbd91" opacity="0.45"/><circle cx="1149" cy="60" r="1.6" fill="#fff5e9" opacity="0.34"/><circle cx="1343" cy="120" r="1.6" fill="#fff5e9" opacity="0.30"/><circle cx="1420" cy="7" r="2" fill="#ffbd91" opacity="0.69"/><circle cx="1552" cy="57" r="0.8" fill="#fff5e9" opacity="0.59"/><circle cx="482" cy="44" r="1.2" fill="#ffbd91" opacity="0.61"/><circle cx="1294" cy="45" r="1" fill="#fff5e9" opacity="0.33"/><circle cx="1047" cy="71" r="1.6" fill="#fff5e9" opacity="0.64"/><circle cx="1120" cy="169" r="1.2" fill="#ffbd91" opacity="0.64"/><circle cx="277" cy="45" r="2" fill="#fff5e9" opacity="0.71"/><circle cx="267" cy="13" r="1.6" fill="#fff5e9" opacity="0.50"/><circle cx="1570" cy="105" r="0.8" fill="#fff5e9" opacity="0.58"/><circle cx="460" cy="122" r="1.2" fill="#ffbd91" opacity="0.37"/><circle cx="807" cy="70" r="1" fill="#ffbd91" opacity="0.70"/><circle cx="1180" cy="164" r="2" fill="#fff5e9" opacity="0.40"/><circle cx="1559" cy="11" r="1.2" fill="#fff5e9" opacity="0.47"/><path d="M-100 178 33 147 167 178 167 178 275 70 383 178 383 178 511 77 639 178 639 178 746 129 854 178 854 178 1028 82 1203 178 1203 178 1397 153 1592 178 1592 178 1726 99 1861 178 L1700 200 L-100 200Z" fill="#50413b" opacity="0.55"/><path d="M-100 180 46 85 193 180 193 180 300 126 408 180 408 180 534 107 660 180 660 180 765 156 870 180 870 180 1015 113 1161 180 1161 180 1263 115 1366 180 1366 180 1504 147 1643 180 1643 180 1765 158 1888 180 L1700 200 L-100 200Z" fill="#393044" opacity="0.82"/><path d="M-100 180 -26 118 49 180 49 180 151 72 254 180 254 180 351 100 448 180 448 180 506 107 565 180 565 180 617 91 670 180 670 180 766 137 863 180 863 180 927 99 992 180 992 180 1055 95 1118 180 1118 180 1181 71 1245 180 1245 180 1327 89 1410 180 1410 180 1483 132 1556 180 1556 180 1624 81 1692 180 1692 180 1745 100 1799 180 L1700 200 L-100 200Z" fill="#201c2a" opacity="1"/><path d="M0 158Q400 112 800 162T1600 135" fill="none" stroke="#ffbd91" stroke-opacity=".7" stroke-width="2"/><circle cx="744" cy="40" r="28" fill="#ffbd91" opacity=".26"/><path d="M0 178h1600" stroke="#ffbd91" stroke-opacity=".52"/></svg>