<svg xmlns="http://www.w3.org/2000/svg" viewBox="0 0 1600 180" preserveAspectRatio="xMidYMid slice"><defs><linearGradient id="sky" x2="0" y2="1"><stop stop-color="#211044"/><stop offset=".58" stop-color="#110925"/><stop offset="1" stop-color="#40215b"/></linearGradient><radialGradient id="glow"><stop stop-color="#ff68d2" stop-opacity=".8"/><stop offset=".28" stop-color="#ff68d2" stop-opacity=".24"/><stop offset="1" stop-color="#ff68d2" stop-opacity="0"/></radialGradient><linearGradient id="facet" x2=".8" y2="1"><stop stop-color="#fff0ff" stop-opacity=".7"/><stop offset="1" stop-color="#ff68d2" stop-opacity=".8"/></linearGradient><filter id="soft"><feGaussianBlur stdDeviation="12"/></filter><filter id="shine"><feGaussianBlur stdDeviation="2" result="b"/><feMerge><feMergeNode in="b"/><feMergeNode in="SourceGraphic"/></feMerge></filter></defs><path fill="url(#sky)" d="M0 0h1600v180H0z"/><ellipse cx="708" cy="20" rx="480" ry="90" fill="url(#glow)" filter="url(#soft)"/><circle cx="1024" cy="93" r="0.8" fill="#ff68d2" opacity="0.61"/><circle cx="158" cy="139" r="1.6" fill="#fff0ff" opacity="0.33"/><circle cx="779" cy="78" r="1.6" fill="#ff68d2" opacity="0.58"/><circle cx="486" cy="119" r="0.8" fill="#fff0ff" opacity="0.27"/><circle cx="1038" cy="115" r="0.8" fill="#fff0ff" opacity="0.42"/><circle cx="1478" cy="83" r="2" fill="#fff0ff" opacity="0.58"/><circle cx="843" cy="54" r="1" fill="#fff0ff" opacity="0.57"/><circle cx="955" cy="33" r="1" fill="#fff0ff" opacity="0.73"/><circle cx="1144" cy="8" r="1.6" fill="#ff68d2" opacity="0.39"/><circle cx="7" cy="158" r="1" fill="#ff68d2" opacity="0.67"/><circle cx="1236" cy="96" r="1.6" fill="#fff0ff" opacity="0.72"/><circle cx="946" cy="41" r="1.2" fill="#ff68d2" opacity="0.59"/><circle cx="673" cy="56" r="2" fill="#ff68d2" opacity="0.68"/><circle cx="939" cy="165" r="1" fill="#ff68d2" opacity="0.68"/><circle cx="863" cy="45" r="0.8" fill="#ff68d2" opacity="0.68"/><circle cx="551" cy="53" r="1.2" fill="#fff0ff" opacity="0.66"/><circle cx="118" cy="47" r="0.8" fill="#ff68d2" opacity="0.75"/><circle cx="664" cy="129" r="0.8" fill="#fff0ff" opacity="0.33"/><circle cx="877" cy="46" r="1.6" fill="#ff68d2" opacity="0.60"/><circle cx="791" cy="60" r="1" fill="#fff0ff" opacity="0.63"/><circle cx="892" cy="87" r="1.2" fill="#ff68d2" opacity="0.25"/><circle cx="254" cy="96" r="0.8" fill="#fff0ff" opacity="0.53"/><circle cx="673" cy="24" r="1.2" fill="#fff0ff" opacity="0.25"/><circle cx="1315" cy="34" r="1.2" fill="#fff0ff" opacity="0.75"/><circle cx="1543" cy="157" r="1.6" fill="#ff68d2" opacity="0.71"/><circle cx="479" cy="51" r="1.6" fill="#fff0ff" opacity="0.46"/><circle cx="1156" cy="9" r="1" fill="#fff0ff" opacity="0.66"/><circle cx="259" cy="31" r="1" fill="#fff0ff" opacity="0.53"/><circle cx="1347" cy="125" r="1" fill="#fff0ff" opacity="0.27"/><circle cx="939" cy="84" r="1.6" fill="#fff0ff" opacity="0.59"/><circle cx="16" cy="46" r="0.8" fill="#ff68d2" opacity="0.36"/><circle cx="526" cy="49" r="1.2" fill="#fff0ff" opacity="0.40"/><circle cx="1582" cy="134" r="2" fill="#fff0ff" opacity="0.68"/><circle cx="617" cy="116" r="1.6" fill="#fff0ff" opacity="0.75"/><circle cx="521" cy="153" r="2" fill="#ff68d2" opacity="0.69"/><circle cx="1340" cy="102" r="0.8" fill="#fff0ff" opacity="0.64"/><circle cx="957" cy="171" r="0.8" fill="#ff68d2" opacity="0.65"/><circle cx="1033" cy="93" r="1.2" fill="#ff68d2" opacity="0.25"/><circle cx="1561" cy="79" r="1.2" fill="#fff0ff" opacity="0.59"/><circle cx="410" cy="143" r="1.2" fill="#ff68d2" opacity="0.61"/><circle cx="663" cy="37" r="1.6" fill="#fff0ff" opacity="0.43"/><circle cx="346" cy="17" r="1" fill="#fff0ff" opacity="0.43"/><circle cx="886" cy="125" r="1" fill="#ff68d2" opacity="0.54"/><circle cx="463" cy="106" r="1" fill="#fff0ff" opacity="0.46"/><circle cx="502" cy="146" r="0.8" fill="#ff68d2" opacity="0.76"/><circle cx="663" cy="33" r="1.6" fill="#fff0ff" opacity="0.47"/><circle cx="809" cy="33" r="1.6" fill="#ff68d2" opacity="0.28"/><circle cx="524" cy="43" r="1.2" fill="#fff0ff" opacity="0.57"/><circle cx="802" cy="43" r="1.2" fill="#ff68d2" opacity="0.50"/><circle cx="479" cy="33" r="1.2" fill="#fff0ff" opacity="0.56"/><circle cx="224" cy="170" r="2" fill="#fff0ff" opacity="0.44"/><circle cx="1226" cy="26" r="1.2" fill="#fff0ff" opacity="0.70"/><circle cx="274" cy="132" r="2" fill="#fff0ff" opacity="0.37"/><circle cx="172" cy="43" r="1.6" fill="#fff0ff" opacity="0.30"/><circle cx="1041" cy="19" r="0.8" fill="#fff0ff" opacity="0.73"/><circle cx="1408" cy="141" r="2" fill="#ff68d2" opacity="0.37"/><circle cx="66" cy="67" r="2" fill="#ff68d2" opacity="0.27"/><circle cx="701" cy="152" r="1.6" fill="#fff0ff" opacity="0.55"/><circle cx="591" cy="58" r="1.6" fill="#fff0ff" opacity="0.37"/><circle cx="667" cy="158" r="1.2" fill="#fff0ff" opacity="0.70"/><circle cx="327" cy="100" r="1.2" fill="#ff68d2" opacity="0.63"/><circle cx="1228" cy="22" r="0.8" fill="#ff68d2" opacity="0.72"/><circle cx="914" cy="40" r="1.6" fill="#fff0ff" opacity="0.23"/><circle cx="1502" cy="20" r="0.8" fill="#fff0ff" opacity="0.44"/><circle cx="940" cy="43" r="0.8" fill="#ff68d2" opacity="0.77"/><circle cx="616" cy="32" r="2" fill="#ff68d2" opacity="0.51"/><circle cx="68" cy="39" r="0.8" fill="#fff0ff" opacity="0.23"/><circle cx="1264" cy="163" r="1.2" fill="#ff68d2" opacity="0.34"/><circle cx="1477" cy="57" r="1" fill="#fff0ff" opacity="0.65"/><circle cx="1513" cy="103" r="2" fill="#ff68d2" opacity="0.24"/><circle cx="1132" cy="78" r="1" fill="#fff0ff" opacity="0.43"/><circle cx="925" cy="8" r="1.6" fill="#fff0ff" opacity="0.69"/><circle cx="863" cy="112" r="1.2" fill="#ff68d2" opacity="0.73"/><circle cx="1102" cy="63" r="2" fill="#fff0ff" opacity="0.33"/><circle cx="1446" cy="97" r="2" fill="#ff68d2" opacity="0.46"/><circle cx="1518" cy="28" r="0.8" fill="#fff0ff" opacity="0.47"/><path d="M0 68Q200 56 400 68T800 68T1200 68T1600 68" fill="none" stroke="#211044" stroke-width="7.0" opacity="0.35"/><path d="M0 91Q200 77 400 91T800 91T1200 91T1600 91" fill="none" stroke="#40215b" stroke-width="6.45" opacity="0.43"/><path d="M0 114Q200 98 400 114T800 114T1200 114T1600 114" fill="none" stroke="#110925" stroke-width="5.9" opacity="0.51"/><path d="M0 137Q200 119 400 137T800 137T1200 137T1600 137" fill="none" stroke="#ff68d2" stroke-width="5.35" opacity="0.59"/><path d="M0 160Q200 140 400 160T800 160T1200 160T1600 160" fill="none" stroke="#fff0ff" stroke-width="4.8" opacity="0.67"/><path d="M0 183Q200 161 400 183T800 183T1200 183T1600 183" fill="none" stroke="#211044" stroke-width="4.25" opacity="0.75"/><circle cx="838" cy="74" r="2" fill="none" stroke="#fff0ff" stroke-opacity=".54"/><circle cx="1106" cy="118" r="4" fill="none" stroke="#fff0ff" stroke-opacity=".54"/><circle cx="1165" cy="68" r="7" fill="none" stroke="#fff0ff" stroke-opacity=".54"/><circle cx="831" cy="101" r="7" fill="none" stroke="#fff0ff" stroke-opacity=".54"/><circle cx="1033" cy="104" r="3" fill="none" stroke="#fff0ff" stroke-opacity=".54"/><circle cx="938" cy="146" r="7" fill="none" stroke="#fff0ff" stroke-opacity=".54"/><circle cx="1484" cy="57" r="3" fill="none" stroke="#fff0ff" stroke-opacity=".54"/><circle cx="800" cy="121" r="5" fill="none" stroke="#fff0ff" stroke-opacity=".54"/><circle cx="562" cy="136" r="4" fill="none" stroke="#fff0ff" stroke-opacity=".54"/><circle cx="244" cy="82" r="5" fill="none" stroke="#fff0ff" stroke-opacity=".54"/><circle cx="927" cy="149" r="6" fill="none" stroke="#fff0ff" stroke-opacity=".54"/><circle cx="766" cy="122" r="7" fill="none" stroke="#fff0ff" stroke-opacity=".54"/><circle cx="1066" cy="76" r="3" fill="none" stroke="#fff0ff" stroke-opacity=".54"/><path d="M0 178h1600" stroke="#ff68d2" stroke-opacity=".52"/></svg>