<svg xmlns="http://www.w3.org/2000/svg" viewBox="0 0 1600 180" preserveAspectRatio="xMidYMid slice"><defs><linearGradient id="sky" x2="0" y2="1"><stop stop-color="#10172d"/><stop offset=".58" stop-color="#080d1d"/><stop offset="1" stop-color="#26304b"/></linearGradient><radialGradient id="glow"><stop stop-color="#54d7ff" stop-opacity=".8"/><stop offset=".28" stop-color="#54d7ff" stop-opacity=".24"/><stop offset="1" stop-color="#54d7ff" stop-opacity="0"/></radialGradient><linearGradient id="facet" x2=".8" y2="1"><stop stop-color="#eaf4ff" stop-opacity=".7"/><stop offset="1" stop-color="#54d7ff" stop-opacity=".8"/></linearGradient><filter id="soft"><feGaussianBlur stdDeviation="12"/></filter><filter id="shine"><feGaussianBlur stdDeviation="2" result="b"/><feMerge><feMergeNode in="b"/><feMergeNode in="SourceGraphic"/></feMerge></filter></defs><path fill="url(#sky)" d="M0 0h1600v180H0z"/><ellipse cx="1260" cy="152" rx="480" ry="90" fill="url(#glow)" filter="url(#soft)"/><circle cx="613" cy="89" r="1.6" fill="#eaf4ff" opacity="0.44"/><circle cx="1435" cy="108" r="1.6" fill="#eaf4ff" opacity="0.66"/><circle cx="12" cy="96" r="1.2" fill="#54d7ff" opacity="0.43"/><circle cx="485" cy="72" r="1" fill="#eaf4ff" opacity="0.42"/><circle cx="1225" cy="59" r="1.2" fill="#54d7ff" opacity="0.63"/><circle cx="1300" cy="127" r="1.2" fill="#eaf4ff" opacity="0.70"/><circle cx="916" cy="108" r="0.8" fill="#54d7ff" opacity="0.29"/><circle cx="1209" cy="117" r="0.8" fill="#eaf4ff" opacity="0.23"/><circle cx="370" cy="131" r="0.8" fill="#eaf4ff" opacity="0.34"/><circle cx="59" cy="126" r="0.8" fill="#54d7ff" opacity="0.35"/><circle cx="1511" cy="134" r="1.6" fill="#54d7ff" opacity="0.32"/><circle cx="117" cy="158" r="2" fill="#54d7ff" opacity="0.42"/><circle cx="934" cy="125" r="2" fill="#54d7ff" opacity="0.48"/><circle cx="1253" cy="26" r="0.8" fill="#eaf4ff" opacity="0.72"/><circle cx="558" cy="29" r="1" fill="#54d7ff" opacity="0.32"/><circle cx="222" cy="161" r="1" fill="#eaf4ff" opacity="0.58"/><circle cx="1362" cy="124" r="1.6" fill="#54d7ff" opacity="0.70"/><circle cx="674" cy="24" r="2" fill="#54d7ff" opacity="0.76"/><circle cx="251" cy="39" r="1.2" fill="#54d7ff" opacity="0.59"/><circle cx="140" cy="172" r="0.8" fill="#54d7ff" opacity="0.25"/><circle cx="1147" cy="78" r="2" fill="#eaf4ff" opacity="0.52"/><circle cx="156" cy="98" r="0.8" fill="#54d7ff" opacity="0.37"/><circle cx="895" cy="112" r="0.8" fill="#54d7ff" opacity="0.65"/><circle cx="1088" cy="85" r="1.2" fill="#eaf4ff" opacity="0.24"/><circle cx="1151" cy="72" r="0.8" fill="#eaf4ff" opacity="0.68"/><circle cx="243" cy="24" r="1.2" fill="#54d7ff" opacity="0.60"/><circle cx="956" cy="35" r="1" fill="#54d7ff" opacity="0.50"/><circle cx="50" cy="144" r="1.6" fill="#eaf4ff" opacity="0.44"/><circle cx="439" cy="105" r="2" fill="#eaf4ff" opacity="0.25"/><circle cx="1371" cy="10" r="2" fill="#54d7ff" opacity="0.46"/><circle cx="1588" cy="91" r="0.8" fill="#54d7ff" opacity="0.53"/><circle cx="462" cy="159" r="1" fill="#eaf4ff" opacity="0.45"/><circle cx="852" cy="151" r="2" fill="#eaf4ff" opacity="0.33"/><circle cx="1441" cy="48" r="1.2" fill="#eaf4ff" opacity="0.59"/><circle cx="120" cy="109" r="0.8" fill="#54d7ff" opacity="0.66"/><circle cx="326" cy="125" r="2" fill="#eaf4ff" opacity="0.31"/><circle cx="1113" cy="48" r="2" fill="#eaf4ff" opacity="0.60"/><circle cx="342" cy="102" r="2" fill="#54d7ff" opacity="0.39"/><circle cx="1285" cy="15" r="1" fill="#eaf4ff" opacity="0.54"/><circle cx="282" cy="83" r="1.2" fill="#54d7ff" opacity="0.68"/><circle cx="285" cy="139" r="1.6" fill="#54d7ff" opacity="0.23"/><circle cx="1102" cy="44" r="2" fill="#eaf4ff" opacity="0.58"/><circle cx="1008" cy="69" r="1.6" fill="#54d7ff" opacity="0.37"/><circle cx="344" cy="12" r="2" fill="#54d7ff" opacity="0.63"/><circle cx="677" cy="172" r="0.8" fill="#eaf4ff" opacity="0.66"/><circle cx="312" cy="67" r="0.8" fill="#eaf4ff" opacity="0.76"/><circle cx="316" cy="19" r="2" fill="#54d7ff" opacity="0.74"/><circle cx="170" cy="104" r="1" fill="#54d7ff" opacity="0.55"/><circle cx="1096" cy="59" r="0.8" fill="#54d7ff" opacity="0.37"/><circle cx="1189" cy="66" r="1.6" fill="#eaf4ff" opacity="0.35"/><circle cx="924" cy="72" r="0.8" fill="#eaf4ff" opacity="0.74"/><circle cx="301" cy="102" r="0.8" fill="#eaf4ff" opacity="0.35"/><circle cx="937" cy="171" r="2" fill="#eaf4ff" opacity="0.27"/><circle cx="1388" cy="44" r="0.8" fill="#54d7ff" opacity="0.72"/><circle cx="320" cy="138" r="2" fill="#54d7ff" opacity="0.40"/><circle cx="1315" cy="27" r="1.6" fill="#eaf4ff" opacity="0.62"/><circle cx="1275" cy="62" r="1.6" fill="#54d7ff" opacity="0.41"/><circle cx="1302" cy="103" r="0.8" fill="#54d7ff" opacity="0.32"/><circle cx="1233" cy="37" r="1.2" fill="#eaf4ff" opacity="0.72"/><circle cx="491" cy="170" r="1.2" fill="#eaf4ff" opacity="0.28"/><circle cx="1034" cy="18" r="0.8" fill="#eaf4ff" opacity="0.29"/><circle cx="92" cy="20" r="1.6" fill="#eaf4ff" opacity="0.51"/><circle cx="781" cy="26" r="1.2" fill="#eaf4ff" opacity="0.58"/><circle cx="506" cy="115" r="0.8" fill="#eaf4ff" opacity="0.44"/><circle cx="596" cy="165" r="1" fill="#eaf4ff" opacity="0.65"/><circle cx="1478" cy="139" r="1" fill="#54d7ff" opacity="0.36"/><circle cx="48" cy="50" r="1.2" fill="#54d7ff" opacity="0.54"/><circle cx="888" cy="168" r="0.8" fill="#54d7ff" opacity="0.57"/><circle cx="1368" cy="131" r="1.6" fill="#54d7ff" opacity="0.33"/><circle cx="628" cy="151" r="1" fill="#54d7ff" opacity="0.24"/><circle cx="599" cy="114" r="0.8" fill="#eaf4ff" opacity="0.50"/><circle cx="636" cy="146" r="0.8" fill="#54d7ff" opacity="0.57"/><circle cx="268" cy="72" r="1" fill="#54d7ff" opacity="0.31"/><circle cx="1430" cy="151" r="1.2" fill="#54d7ff" opacity="0.74"/><circle cx="949" cy="116" r="2" fill="#54d7ff" opacity="0.41"/><circle cx="783" cy="157" r="1" fill="#eaf4ff" opacity="0.62"/><g><path d="M-8 122h96v44h-96z" fill="#26304b" opacity=".92"/><rect x="0" y="131" width="4" height="6" fill="#54d7ff" opacity="0.84"/><rect x="0" y="148" width="4" height="6" fill="#54d7ff" opacity="0.85"/><rect x="15" y="131" width="4" height="6" fill="#54d7ff" opacity="0.75"/><rect x="15" y="148" width="4" height="6" fill="#54d7ff" opacity="0.75"/><rect x="30" y="131" width="4" height="6" fill="#54d7ff" opacity="0.70"/><rect x="30" y="148" width="4" height="6" fill="#54d7ff" opacity="0.90"/><rect x="45" y="131" width="4" height="6" fill="#54d7ff" opacity="0.47"/><rect x="60" y="131" width="4" height="6" fill="#54d7ff" opacity="0.89"/><rect x="60" y="148" width="4" height="6" fill="#54d7ff" opacity="0.44"/><rect x="75" y="131" width="4" height="6" fill="#54d7ff" opacity="0.70"/><path d="M99 77h100v89h-100z" fill="#080d1d" opacity=".92"/><rect x="107" y="86" width="4" height="6" fill="#54d7ff" opacity="0.70"/><rect x="107" y="103" width="4" height="6" fill="#54d7ff" opacity="0.48"/><rect x="107" y="120" width="4" height="6" fill="#54d7ff" opacity="0.85"/><rect x="107" y="154" width="4" height="6" fill="#54d7ff" opacity="0.62"/><rect x="122" y="86" width="4" height="6" fill="#54d7ff" opacity="0.41"/><rect x="122" y="120" width="4" height="6" fill="#54d7ff" opacity="0.43"/><rect x="137" y="86" width="4" height="6" fill="#54d7ff" opacity="0.82"/><rect x="137" y="103" width="4" height="6" fill="#54d7ff" opacity="0.52"/><rect x="137" y="120" width="4" height="6" fill="#54d7ff" opacity="0.74"/><rect x="137" y="137" width="4" height="6" fill="#54d7ff" opacity="0.81"/><rect x="152" y="103" width="4" height="6" fill="#54d7ff" opacity="0.80"/><rect x="152" y="120" width="4" height="6" fill="#54d7ff" opacity="0.48"/><rect x="152" y="137" width="4" height="6" fill="#54d7ff" opacity="0.75"/><rect x="152" y="154" width="4" height="6" fill="#54d7ff" opacity="0.77"/><rect x="167" y="86" width="4" height="6" fill="#54d7ff" opacity="0.84"/><rect x="167" y="103" width="4" height="6" fill="#54d7ff" opacity="0.85"/><rect x="167" y="120" width="4" height="6" fill="#54d7ff" opacity="0.44"/><rect x="167" y="137" width="4" height="6" fill="#54d7ff" opacity="0.73"/><rect x="182" y="86" width="4" height="6" fill="#54d7ff" opacity="0.62"/><rect x="182" y="103" width="4" height="6" fill="#54d7ff" opacity="0.49"/><rect x="182" y="137" width="4" height="6" fill="#54d7ff" opacity="0.83"/><rect x="182" y="154" width="4" height="6" fill="#54d7ff" opacity="0.68"/><path d="M205 116h44v50h-44z" fill="#26304b" opacity=".92"/><rect x="213" y="142" width="4" height="6" fill="#54d7ff" opacity="0.89"/><rect x="213" y="159" width="4" height="6" fill="#54d7ff" opacity="0.65"/><rect x="228" y="142" width="4" height="6" fill="#54d7ff" opacity="0.65"/><rect x="228" y="159" width="4" height="6" fill="#54d7ff" opacity="0.54"/><rect x="243" y="125" width="4" height="6" fill="#54d7ff" opacity="0.37"/><rect x="243" y="142" width="4" height="6" fill="#54d7ff" opacity="0.89"/><path d="M261 116h100v50h-100z" fill="#080d1d" opacity=".92"/><rect x="269" y="125" width="4" height="6" fill="#54d7ff" opacity="0.73"/><rect x="269" y="142" width="4" height="6" fill="#54d7ff" opacity="0.84"/><rect x="284" y="125" width="4" height="6" fill="#54d7ff" opacity="0.78"/><rect x="284" y="142" width="4" height="6" fill="#54d7ff" opacity="0.41"/><rect x="284" y="159" width="4" height="6" fill="#54d7ff" opacity="0.50"/><rect x="299" y="125" width="4" height="6" fill="#54d7ff" opacity="0.83"/><rect x="299" y="142" width="4" height="6" fill="#54d7ff" opacity="0.49"/><rect x="299" y="159" width="4" height="6" fill="#54d7ff" opacity="0.68"/><rect x="314" y="125" width="4" height="6" fill="#54d7ff" opacity="0.73"/><rect x="314" y="142" width="4" height="6" fill="#54d7ff" opacity="0.84"/><rect x="314" y="159" width="4" height="6" fill="#54d7ff" opacity="0.63"/><rect x="329" y="125" width="4" height="6" fill="#54d7ff" opacity="0.46"/><rect x="329" y="159" width="4" height="6" fill="#54d7ff" opacity="0.60"/><rect x="344" y="125" width="4" height="6" fill="#54d7ff" opacity="0.61"/><rect x="344" y="142" width="4" height="6" fill="#54d7ff" opacity="0.38"/><rect x="344" y="159" width="4" height="6" fill="#54d7ff" opacity="0.42"/><path d="M369 73h77v93h-77z" fill="#10172d" opacity=".92"/><rect x="377" y="82" width="4" height="6" fill="#54d7ff" opacity="0.57"/><rect x="377" y="99" width="4" height="6" fill="#54d7ff" opacity="0.59"/><rect x="377" y="116" width="4" height="6" fill="#54d7ff" opacity="0.50"/><rect x="377" y="150" width="4" height="6" fill="#54d7ff" opacity="0.83"/><rect x="392" y="116" width="4" height="6" fill="#54d7ff" opacity="0.87"/><rect x="407" y="82" width="4" height="6" fill="#54d7ff" opacity="0.41"/><rect x="407" y="99" width="4" height="6" fill="#54d7ff" opacity="0.67"/><rect x="407" y="116" width="4" height="6" fill="#54d7ff" opacity="0.75"/><rect x="407" y="133" width="4" height="6" fill="#54d7ff" opacity="0.50"/><rect x="407" y="150" width="4" height="6" fill="#54d7ff" opacity="0.87"/><rect x="422" y="82" width="4" height="6" fill="#54d7ff" opacity="0.88"/><rect x="422" y="99" width="4" height="6" fill="#54d7ff" opacity="0.70"/><rect x="422" y="116" width="4" height="6" fill="#54d7ff" opacity="0.51"/><rect x="422" y="133" width="4" height="6" fill="#54d7ff" opacity="0.46"/><rect x="422" y="150" width="4" height="6" fill="#54d7ff" opacity="0.39"/><rect x="437" y="82" width="4" height="6" fill="#54d7ff" opacity="0.83"/><rect x="437" y="99" width="4" height="6" fill="#54d7ff" opacity="0.77"/><rect x="437" y="116" width="4" height="6" fill="#54d7ff" opacity="0.68"/><rect x="437" y="133" width="4" height="6" fill="#54d7ff" opacity="0.36"/><path d="M461 83h68v83h-68z" fill="#26304b" opacity=".92"/><rect x="469" y="92" width="4" height="6" fill="#54d7ff" opacity="0.59"/><rect x="469" y="109" width="4" height="6" fill="#54d7ff" opacity="0.67"/><rect x="469" y="126" width="4" height="6" fill="#54d7ff" opacity="0.41"/><rect x="469" y="143" width="4" height="6" fill="#54d7ff" opacity="0.70"/><rect x="469" y="160" width="4" height="6" fill="#54d7ff" opacity="0.43"/><rect x="484" y="92" width="4" height="6" fill="#54d7ff" opacity="0.65"/><rect x="484" y="109" width="4" height="6" fill="#54d7ff" opacity="0.54"/><rect x="484" y="126" width="4" height="6" fill="#54d7ff" opacity="0.68"/><rect x="484" y="143" width="4" height="6" fill="#54d7ff" opacity="0.51"/><rect x="499" y="109" width="4" height="6" fill="#54d7ff" opacity="0.80"/><rect x="499" y="126" width="4" height="6" fill="#54d7ff" opacity="0.64"/><rect x="499" y="143" width="4" height="6" fill="#54d7ff" opacity="0.42"/><rect x="499" y="160" width="4" height="6" fill="#54d7ff" opacity="0.88"/><rect x="514" y="92" width="4" height="6" fill="#54d7ff" opacity="0.56"/><rect x="514" y="109" width="4" height="6" fill="#54d7ff" opacity="0.40"/><rect x="514" y="143" width="4" height="6" fill="#54d7ff" opacity="0.88"/><path d="M536 119h62v47h-62z" fill="#080d1d" opacity=".92"/><rect x="544" y="128" width="4" height="6" fill="#54d7ff" opacity="0.53"/><rect x="544" y="145" width="4" height="6" fill="#54d7ff" opacity="0.69"/><rect x="544" y="162" width="4" height="6" fill="#54d7ff" opacity="0.83"/><rect x="559" y="128" width="4" height="6" fill="#54d7ff" opacity="0.50"/><rect x="559" y="145" width="4" height="6" fill="#54d7ff" opacity="0.61"/><rect x="559" y="162" width="4" height="6" fill="#54d7ff" opacity="0.68"/><rect x="574" y="128" width="4" height="6" fill="#54d7ff" opacity="0.68"/><rect x="574" y="162" width="4" height="6" fill="#54d7ff" opacity="0.67"/><rect x="589" y="128" width="4" height="6" fill="#54d7ff" opacity="0.71"/><rect x="589" y="145" width="4" height="6" fill="#54d7ff" opacity="0.38"/><rect x="589" y="162" width="4" height="6" fill="#54d7ff" opacity="0.69"/><path d="M610 61h47v105h-47z" fill="#26304b" opacity=".92"/><rect x="618" y="70" width="4" height="6" fill="#54d7ff" opacity="0.81"/><rect x="618" y="87" width="4" height="6" fill="#54d7ff" opacity="0.88"/><rect x="618" y="104" width="4" height="6" fill="#54d7ff" opacity="0.86"/><rect x="618" y="121" width="4" height="6" fill="#54d7ff" opacity="0.74"/><rect x="618" y="138" width="4" height="6" fill="#54d7ff" opacity="0.47"/><rect x="618" y="155" width="4" height="6" fill="#54d7ff" opacity="0.53"/><rect x="633" y="70" width="4" height="6" fill="#54d7ff" opacity="0.75"/><rect x="633" y="104" width="4" height="6" fill="#54d7ff" opacity="0.86"/><rect x="633" y="121" width="4" height="6" fill="#54d7ff" opacity="0.75"/><rect x="648" y="104" width="4" height="6" fill="#54d7ff" opacity="0.64"/><rect x="648" y="155" width="4" height="6" fill="#54d7ff" opacity="0.62"/><path d="M671 126h46v40h-46z" fill="#10172d" opacity=".92"/><rect x="679" y="152" width="4" height="6" fill="#54d7ff" opacity="0.60"/><rect x="694" y="152" width="4" height="6" fill="#54d7ff" opacity="0.69"/><rect x="709" y="135" width="4" height="6" fill="#54d7ff" opacity="0.49"/><rect x="709" y="152" width="4" height="6" fill="#54d7ff" opacity="0.41"/><path d="M729 46h103v120h-103z" fill="#10172d" opacity=".92"/><rect x="737" y="55" width="4" height="6" fill="#54d7ff" opacity="0.75"/><rect x="737" y="72" width="4" height="6" fill="#54d7ff" opacity="0.87"/><rect x="737" y="89" width="4" height="6" fill="#54d7ff" opacity="0.66"/><rect x="737" y="106" width="4" height="6" fill="#54d7ff" opacity="0.87"/><rect x="737" y="123" width="4" height="6" fill="#54d7ff" opacity="0.87"/><rect x="737" y="140" width="4" height="6" fill="#54d7ff" opacity="0.44"/><rect x="737" y="157" width="4" height="6" fill="#54d7ff" opacity="0.42"/><rect x="752" y="106" width="4" height="6" fill="#54d7ff" opacity="0.57"/><rect x="752" y="123" width="4" height="6" fill="#54d7ff" opacity="0.38"/><rect x="752" y="140" width="4" height="6" fill="#54d7ff" opacity="0.56"/><rect x="767" y="55" width="4" height="6" fill="#54d7ff" opacity="0.50"/><rect x="767" y="72" width="4" height="6" fill="#54d7ff" opacity="0.50"/><rect x="767" y="106" width="4" height="6" fill="#54d7ff" opacity="0.46"/><rect x="767" y="140" width="4" height="6" fill="#54d7ff" opacity="0.54"/><rect x="782" y="55" width="4" height="6" fill="#54d7ff" opacity="0.71"/><rect x="782" y="72" width="4" height="6" fill="#54d7ff" opacity="0.56"/><rect x="782" y="89" width="4" height="6" fill="#54d7ff" opacity="0.66"/><rect x="782" y="106" width="4" height="6" fill="#54d7ff" opacity="0.89"/><rect x="782" y="123" width="4" height="6" fill="#54d7ff" opacity="0.89"/><rect x="782" y="140" width="4" height="6" fill="#54d7ff" opacity="0.49"/><rect x="782" y="157" width="4" height="6" fill="#54d7ff" opacity="0.53"/><rect x="797" y="55" width="4" height="6" fill="#54d7ff" opacity="0.75"/><rect x="797" y="89" width="4" height="6" fill="#54d7ff" opacity="0.78"/><rect x="797" y="106" width="4" height="6" fill="#54d7ff" opacity="0.41"/><rect x="797" y="123" width="4" height="6" fill="#54d7ff" opacity="0.45"/><rect x="797" y="140" width="4" height="6" fill="#54d7ff" opacity="0.81"/><rect x="797" y="157" width="4" height="6" fill="#54d7ff" opacity="0.80"/><rect x="812" y="55" width="4" height="6" fill="#54d7ff" opacity="0.38"/><rect x="812" y="72" width="4" height="6" fill="#54d7ff" opacity="0.71"/><rect x="812" y="106" width="4" height="6" fill="#54d7ff" opacity="0.85"/><rect x="812" y="140" width="4" height="6" fill="#54d7ff" opacity="0.38"/><rect x="812" y="157" width="4" height="6" fill="#54d7ff" opacity="0.73"/><rect x="827" y="55" width="4" height="6" fill="#54d7ff" opacity="0.62"/><rect x="827" y="89" width="4" height="6" fill="#54d7ff" opacity="0.90"/><rect x="827" y="106" width="4" height="6" fill="#54d7ff" opacity="0.47"/><rect x="827" y="123" width="4" height="6" fill="#54d7ff" opacity="0.83"/><rect x="827" y="140" width="4" height="6" fill="#54d7ff" opacity="0.38"/><path d="M837 59h71v107h-71z" fill="#26304b" opacity=".92"/><rect x="845" y="85" width="4" height="6" fill="#54d7ff" opacity="0.90"/><rect x="845" y="119" width="4" height="6" fill="#54d7ff" opacity="0.55"/><rect x="845" y="136" width="4" height="6" fill="#54d7ff" opacity="0.78"/><rect x="845" y="153" width="4" height="6" fill="#54d7ff" opacity="0.56"/><rect x="860" y="68" width="4" height="6" fill="#54d7ff" opacity="0.41"/><rect x="860" y="85" width="4" height="6" fill="#54d7ff" opacity="0.88"/><rect x="860" y="102" width="4" height="6" fill="#54d7ff" opacity="0.61"/><rect x="860" y="119" width="4" height="6" fill="#54d7ff" opacity="0.81"/><rect x="860" y="153" width="4" height="6" fill="#54d7ff" opacity="0.41"/><rect x="875" y="68" width="4" height="6" fill="#54d7ff" opacity="0.43"/><rect x="875" y="85" width="4" height="6" fill="#54d7ff" opacity="0.43"/><rect x="875" y="119" width="4" height="6" fill="#54d7ff" opacity="0.60"/><rect x="875" y="136" width="4" height="6" fill="#54d7ff" opacity="0.49"/><rect x="875" y="153" width="4" height="6" fill="#54d7ff" opacity="0.51"/><rect x="890" y="68" width="4" height="6" fill="#54d7ff" opacity="0.37"/><rect x="890" y="102" width="4" height="6" fill="#54d7ff" opacity="0.50"/><rect x="890" y="119" width="4" height="6" fill="#54d7ff" opacity="0.81"/><rect x="890" y="136" width="4" height="6" fill="#54d7ff" opacity="0.63"/><rect x="890" y="153" width="4" height="6" fill="#54d7ff" opacity="0.61"/><path d="M920 128h46v38h-46z" fill="#10172d" opacity=".92"/><rect x="928" y="154" width="4" height="6" fill="#54d7ff" opacity="0.79"/><rect x="943" y="154" width="4" height="6" fill="#54d7ff" opacity="0.64"/><rect x="958" y="137" width="4" height="6" fill="#54d7ff" opacity="0.70"/><rect x="958" y="154" width="4" height="6" fill="#54d7ff" opacity="0.72"/><path d="M975 78h49v88h-49z" fill="#26304b" opacity=".92"/><rect x="983" y="104" width="4" height="6" fill="#54d7ff" opacity="0.56"/><rect x="983" y="121" width="4" height="6" fill="#54d7ff" opacity="0.53"/><rect x="983" y="155" width="4" height="6" fill="#54d7ff" opacity="0.44"/><rect x="998" y="87" width="4" height="6" fill="#54d7ff" opacity="0.41"/><rect x="998" y="104" width="4" height="6" fill="#54d7ff" opacity="0.36"/><rect x="998" y="121" width="4" height="6" fill="#54d7ff" opacity="0.50"/><rect x="998" y="138" width="4" height="6" fill="#54d7ff" opacity="0.66"/><rect x="998" y="155" width="4" height="6" fill="#54d7ff" opacity="0.48"/><rect x="1013" y="87" width="4" height="6" fill="#54d7ff" opacity="0.45"/><rect x="1013" y="104" width="4" height="6" fill="#54d7ff" opacity="0.42"/><rect x="1013" y="121" width="4" height="6" fill="#54d7ff" opacity="0.82"/><rect x="1013" y="138" width="4" height="6" fill="#54d7ff" opacity="0.39"/><rect x="1013" y="155" width="4" height="6" fill="#54d7ff" opacity="0.51"/><path d="M1041 77h85v89h-85z" fill="#26304b" opacity=".92"/><rect x="1049" y="86" width="4" height="6" fill="#54d7ff" opacity="0.74"/><rect x="1049" y="103" width="4" height="6" fill="#54d7ff" opacity="0.48"/><rect x="1049" y="120" width="4" height="6" fill="#54d7ff" opacity="0.46"/><rect x="1049" y="154" width="4" height="6" fill="#54d7ff" opacity="0.50"/><rect x="1064" y="103" width="4" height="6" fill="#54d7ff" opacity="0.38"/><rect x="1064" y="154" width="4" height="6" fill="#54d7ff" opacity="0.67"/><rect x="1079" y="86" width="4" height="6" fill="#54d7ff" opacity="0.37"/><rect x="1079" y="103" width="4" height="6" fill="#54d7ff" opacity="0.60"/><rect x="1079" y="120" width="4" height="6" fill="#54d7ff" opacity="0.37"/><rect x="1094" y="86" width="4" height="6" fill="#54d7ff" opacity="0.58"/><rect x="1094" y="103" width="4" height="6" fill="#54d7ff" opacity="0.71"/><rect x="1094" y="120" width="4" height="6" fill="#54d7ff" opacity="0.47"/><rect x="1094" y="137" width="4" height="6" fill="#54d7ff" opacity="0.39"/><rect x="1109" y="86" width="4" height="6" fill="#54d7ff" opacity="0.59"/><rect x="1109" y="103" width="4" height="6" fill="#54d7ff" opacity="0.84"/><rect x="1109" y="137" width="4" height="6" fill="#54d7ff" opacity="0.63"/><rect x="1109" y="154" width="4" height="6" fill="#54d7ff" opacity="0.65"/><path d="M1132 75h89v91h-89z" fill="#080d1d" opacity=".92"/><rect x="1140" y="84" width="4" height="6" fill="#54d7ff" opacity="0.66"/><rect x="1140" y="101" width="4" height="6" fill="#54d7ff" opacity="0.76"/><rect x="1140" y="135" width="4" height="6" fill="#54d7ff" opacity="0.37"/><rect x="1140" y="152" width="4" height="6" fill="#54d7ff" opacity="0.44"/><rect x="1155" y="84" width="4" height="6" fill="#54d7ff" opacity="0.59"/><rect x="1155" y="135" width="4" height="6" fill="#54d7ff" opacity="0.69"/><rect x="1170" y="84" width="4" height="6" fill="#54d7ff" opacity="0.88"/><rect x="1170" y="101" width="4" height="6" fill="#54d7ff" opacity="0.84"/><rect x="1170" y="118" width="4" height="6" fill="#54d7ff" opacity="0.54"/><rect x="1170" y="135" width="4" height="6" fill="#54d7ff" opacity="0.43"/><rect x="1170" y="152" width="4" height="6" fill="#54d7ff" opacity="0.51"/><rect x="1185" y="84" width="4" height="6" fill="#54d7ff" opacity="0.37"/><rect x="1185" y="118" width="4" height="6" fill="#54d7ff" opacity="0.49"/><rect x="1185" y="135" width="4" height="6" fill="#54d7ff" opacity="0.37"/><rect x="1185" y="152" width="4" height="6" fill="#54d7ff" opacity="0.40"/><rect x="1200" y="84" width="4" height="6" fill="#54d7ff" opacity="0.38"/><rect x="1200" y="101" width="4" height="6" fill="#54d7ff" opacity="0.74"/><rect x="1200" y="135" width="4" height="6" fill="#54d7ff" opacity="0.80"/><rect x="1200" y="152" width="4" height="6" fill="#54d7ff" opacity="0.71"/><rect x="1215" y="84" width="4" height="6" fill="#54d7ff" opacity="0.44"/><rect x="1215" y="101" width="4" height="6" fill="#54d7ff" opacity="0.42"/><rect x="1215" y="135" width="4" height="6" fill="#54d7ff" opacity="0.49"/><rect x="1215" y="152" width="4" height="6" fill="#54d7ff" opacity="0.36"/><path d="M1226 81h83v85h-83z" fill="#10172d" opacity=".92"/><rect x="1234" y="107" width="4" height="6" fill="#54d7ff" opacity="0.49"/><rect x="1249" y="107" width="4" height="6" fill="#54d7ff" opacity="0.49"/><rect x="1249" y="124" width="4" height="6" fill="#54d7ff" opacity="0.51"/><rect x="1249" y="158" width="4" height="6" fill="#54d7ff" opacity="0.82"/><rect x="1264" y="90" width="4" height="6" fill="#54d7ff" opacity="0.37"/><rect x="1264" y="107" width="4" height="6" fill="#54d7ff" opacity="0.69"/><rect x="1264" y="124" width="4" height="6" fill="#54d7ff" opacity="0.78"/><rect x="1264" y="141" width="4" height="6" fill="#54d7ff" opacity="0.43"/><rect x="1279" y="107" width="4" height="6" fill="#54d7ff" opacity="0.51"/><rect x="1279" y="141" width="4" height="6" fill="#54d7ff" opacity="0.81"/><rect x="1279" y="158" width="4" height="6" fill="#54d7ff" opacity="0.44"/><rect x="1294" y="90" width="4" height="6" fill="#54d7ff" opacity="0.67"/><rect x="1294" y="124" width="4" height="6" fill="#54d7ff" opacity="0.77"/><rect x="1294" y="158" width="4" height="6" fill="#54d7ff" opacity="0.68"/><path d="M1326 115h57v51h-57z" fill="#10172d" opacity=".92"/><rect x="1334" y="124" width="4" height="6" fill="#54d7ff" opacity="0.62"/><rect x="1334" y="141" width="4" height="6" fill="#54d7ff" opacity="0.52"/><rect x="1349" y="124" width="4" height="6" fill="#54d7ff" opacity="0.40"/><rect x="1349" y="141" width="4" height="6" fill="#54d7ff" opacity="0.76"/><rect x="1349" y="158" width="4" height="6" fill="#54d7ff" opacity="0.52"/><rect x="1364" y="124" width="4" height="6" fill="#54d7ff" opacity="0.53"/><rect x="1364" y="158" width="4" height="6" fill="#54d7ff" opacity="0.44"/><path d="M1394 52h83v114h-83z" fill="#26304b" opacity=".92"/><rect x="1402" y="61" width="4" height="6" fill="#54d7ff" opacity="0.68"/><rect x="1402" y="78" width="4" height="6" fill="#54d7ff" opacity="0.41"/><rect x="1402" y="95" width="4" height="6" fill="#54d7ff" opacity="0.64"/><rect x="1402" y="112" width="4" height="6" fill="#54d7ff" opacity="0.40"/><rect x="1402" y="146" width="4" height="6" fill="#54d7ff" opacity="0.80"/><rect x="1402" y="163" width="4" height="6" fill="#54d7ff" opacity="0.83"/><rect x="1417" y="78" width="4" height="6" fill="#54d7ff" opacity="0.50"/><rect x="1417" y="129" width="4" height="6" fill="#54d7ff" opacity="0.80"/><rect x="1417" y="146" width="4" height="6" fill="#54d7ff" opacity="0.66"/><rect x="1432" y="61" width="4" height="6" fill="#54d7ff" opacity="0.46"/><rect x="1432" y="78" width="4" height="6" fill="#54d7ff" opacity="0.46"/><rect x="1432" y="112" width="4" height="6" fill="#54d7ff" opacity="0.39"/><rect x="1432" y="129" width="4" height="6" fill="#54d7ff" opacity="0.40"/><rect x="1432" y="146" width="4" height="6" fill="#54d7ff" opacity="0.87"/><rect x="1432" y="163" width="4" height="6" fill="#54d7ff" opacity="0.78"/><rect x="1447" y="78" width="4" height="6" fill="#54d7ff" opacity="0.63"/><rect x="1447" y="129" width="4" height="6" fill="#54d7ff" opacity="0.35"/><rect x="1447" y="146" width="4" height="6" fill="#54d7ff" opacity="0.42"/><rect x="1447" y="163" width="4" height="6" fill="#54d7ff" opacity="0.68"/><rect x="1462" y="61" width="4" height="6" fill="#54d7ff" opacity="0.59"/><rect x="1462" y="78" width="4" height="6" fill="#54d7ff" opacity="0.41"/><rect x="1462" y="112" width="4" height="6" fill="#54d7ff" opacity="0.76"/><rect x="1462" y="129" width="4" height="6" fill="#54d7ff" opacity="0.73"/><rect x="1462" y="146" width="4" height="6" fill="#54d7ff" opacity="0.85"/><rect x="1462" y="163" width="4" height="6" fill="#54d7ff" opacity="0.40"/><path d="M1487 53h100v113h-100z" fill="#10172d" opacity=".92"/><rect x="1495" y="79" width="4" height="6" fill="#54d7ff" opacity="0.40"/><rect x="1495" y="96" width="4" height="6" fill="#54d7ff" opacity="0.69"/><rect x="1495" y="130" width="4" height="6" fill="#54d7ff" opacity="0.83"/><rect x="1510" y="62" width="4" height="6" fill="#54d7ff" opacity="0.46"/><rect x="1510" y="79" width="4" height="6" fill="#54d7ff" opacity="0.52"/><rect x="1510" y="96" width="4" height="6" fill="#54d7ff" opacity="0.49"/><rect x="1510" y="130" width="4" height="6" fill="#54d7ff" opacity="0.59"/><rect x="1510" y="147" width="4" height="6" fill="#54d7ff" opacity="0.89"/><rect x="1525" y="62" width="4" height="6" fill="#54d7ff" opacity="0.86"/><rect x="1525" y="79" width="4" height="6" fill="#54d7ff" opacity="0.56"/><rect x="1525" y="96" width="4" height="6" fill="#54d7ff" opacity="0.84"/><rect x="1525" y="113" width="4" height="6" fill="#54d7ff" opacity="0.80"/><rect x="1525" y="147" width="4" height="6" fill="#54d7ff" opacity="0.76"/><rect x="1540" y="147" width="4" height="6" fill="#54d7ff" opacity="0.39"/><rect x="1555" y="62" width="4" height="6" fill="#54d7ff" opacity="0.56"/><rect x="1555" y="96" width="4" height="6" fill="#54d7ff" opacity="0.60"/><rect x="1555" y="113" width="4" height="6" fill="#54d7ff" opacity="0.87"/><rect x="1555" y="147" width="4" height="6" fill="#54d7ff" opacity="0.48"/><rect x="1570" y="62" width="4" height="6" fill="#54d7ff" opacity="0.40"/><rect x="1570" y="79" width="4" height="6" fill="#54d7ff" opacity="0.57"/><rect x="1570" y="130" width="4" height="6" fill="#54d7ff" opacity="0.37"/><rect x="1570" y="147" width="4" height="6" fill="#54d7ff" opacity="0.86"/><path d="M1599 48h95v118h-95z" fill="#080d1d" opacity=".92"/><rect x="1607" y="74" width="4" height="6" fill="#54d7ff" opacity="0.70"/><rect x="1607" y="91" width="4" height="6" fill="#54d7ff" opacity="0.82"/><rect x="1607" y="108" width="4" height="6" fill="#54d7ff" opacity="0.72"/><rect x="1607" y="125" width="4" height="6" fill="#54d7ff" opacity="0.50"/><rect x="1607" y="142" width="4" height="6" fill="#54d7ff" opacity="0.84"/><rect x="1607" y="159" width="4" height="6" fill="#54d7ff" opacity="0.43"/><rect x="1622" y="57" width="4" height="6" fill="#54d7ff" opacity="0.64"/><rect x="1622" y="74" width="4" height="6" fill="#54d7ff" opacity="0.50"/><rect x="1622" y="91" width="4" height="6" fill="#54d7ff" opacity="0.57"/><rect x="1622" y="108" width="4" height="6" fill="#54d7ff" opacity="0.80"/><rect x="1622" y="125" width="4" height="6" fill="#54d7ff" opacity="0.76"/><rect x="1622" y="159" width="4" height="6" fill="#54d7ff" opacity="0.70"/><rect x="1637" y="57" width="4" height="6" fill="#54d7ff" opacity="0.51"/><rect x="1637" y="74" width="4" height="6" fill="#54d7ff" opacity="0.79"/><rect x="1637" y="91" width="4" height="6" fill="#54d7ff" opacity="0.77"/><rect x="1637" y="125" width="4" height="6" fill="#54d7ff" opacity="0.66"/><rect x="1652" y="74" width="4" height="6" fill="#54d7ff" opacity="0.71"/><rect x="1652" y="91" width="4" height="6" fill="#54d7ff" opacity="0.68"/><rect x="1652" y="108" width="4" height="6" fill="#54d7ff" opacity="0.45"/><rect x="1652" y="125" width="4" height="6" fill="#54d7ff" opacity="0.53"/><rect x="1652" y="142" width="4" height="6" fill="#54d7ff" opacity="0.66"/><rect x="1652" y="159" width="4" height="6" fill="#54d7ff" opacity="0.59"/><rect x="1667" y="57" width="4" height="6" fill="#54d7ff" opacity="0.87"/><rect x="1667" y="91" width="4" height="6" fill="#54d7ff" opacity="0.64"/><rect x="1667" y="108" width="4" height="6" fill="#54d7ff" opacity="0.88"/><rect x="1667" y="125" width="4" height="6" fill="#54d7ff" opacity="0.63"/><rect x="1682" y="74" width="4" height="6" fill="#54d7ff" opacity="0.39"/><rect x="1682" y="91" width="4" height="6" fill="#54d7ff" opacity="0.47"/><rect x="1682" y="125" width="4" height="6" fill="#54d7ff" opacity="0.46"/><rect x="1682" y="159" width="4" height="6" fill="#54d7ff" opacity="0.59"/></g><path d="M0 174L680 143h240l680 31M800 145L600 180M800 145l200 35" fill="none" stroke="#54d7ff" stroke-opacity=".7" stroke-width="2"/><path d="M0 178h1600" stroke="#54d7ff" stroke-opacity=".52"/></svg>